<?xml version="1.0" standalone="no"?>
<!DOCTYPE svg PUBLIC "-//W3C//DTD SVG 20010904//EN"
 "http://www.w3.org/TR/2001/REC-SVG-20010904/DTD/svg10.dtd">
<svg version="1.0" xmlns="http://www.w3.org/2000/svg"
 width="2500.000000pt" height="3058.000000pt" viewBox="0 0 2500.000000 3058.000000"
 preserveAspectRatio="xMidYMid meet">
<metadata>
Created by potrace 1.15, written by Peter Selinger 2001-2017
</metadata>
<g transform="translate(0.000000,3058.000000) scale(0.100000,-0.100000)"
fill="#e9eff2" stroke="none">
<path d="M12345 23425 c-5 -2 -22 -6 -37 -9 -39 -9 -95 -61 -108 -101 l-12
-35 -96 0 c-100 0 -201 -19 -317 -60 -33 -12 -96 -24 -141 -27 -70 -5 -93 -2
-180 23 -82 24 -117 29 -209 29 -94 0 -116 -3 -151 -22 -79 -42 -140 -139
-159 -249 -4 -21 -14 -54 -22 -73 -20 -44 -12 -197 13 -259 9 -23 15 -45 12
-48 -10 -10 -130 37 -184 71 -84 54 -132 146 -120 231 3 24 22 76 41 115 20
39 35 73 32 75 -2 2 -39 -8 -82 -23 -131 -44 -185 -110 -185 -227 0 -25 -2
-46 -4 -46 -2 0 -41 14 -86 31 -45 17 -84 29 -86 26 -10 -9 36 -160 63 -210
83 -151 315 -247 605 -249 l118 -1 0 -92 c0 -85 3 -98 33 -159 19 -36 30 -66
25 -66 -4 0 5 -35 21 -79 16 -43 27 -90 24 -103 -13 -69 49 -173 127 -213 27
-14 54 -25 59 -25 15 0 41 90 41 144 l0 50 34 -37 c63 -69 161 -95 240 -62 20
8 36 18 36 20 0 3 -13 35 -30 72 -36 80 -37 102 -6 136 57 61 167 42 340 -57
137 -79 187 -96 301 -103 153 -9 243 24 360 132 l60 55 -90 -6 c-113 -8 -148
2 -256 67 -46 29 -110 64 -141 79 -32 15 -55 30 -51 34 3 3 35 6 70 6 51 0 86
-8 171 -41 189 -72 245 -90 322 -99 41 -6 87 -12 101 -15 24 -4 28 0 34 33 3
20 8 44 11 53 3 11 -11 22 -48 39 -35 15 -77 48 -123 96 -38 39 -88 84 -110
99 l-40 27 40 -7 c60 -11 93 -27 228 -108 67 -41 140 -82 162 -92 33 -13 209
-55 235 -55 4 0 14 19 24 42 l16 43 -92 91 c-89 89 -116 128 -143 204 l-14 38
52 -17 c125 -43 274 -131 367 -218 l56 -52 -22 -148 c-32 -206 -34 -195 29
-242 30 -21 65 -53 79 -69 47 -56 45 -177 -3 -228 -12 -13 -44 -31 -70 -39
-27 -9 -49 -19 -49 -21 0 -2 12 -23 28 -46 40 -61 38 -132 -6 -218 -42 -82
-57 -98 -107 -121 -30 -14 -64 -19 -137 -19 l-97 0 -11 -57 c-17 -79 -49 -139
-110 -206 -73 -79 -101 -87 -233 -59 -56 12 -109 22 -118 22 -11 0 -19 -22
-32 -87 -19 -98 -33 -123 -100 -171 -95 -68 -217 -96 -343 -77 -47 7 -52 5
-72 -19 -12 -15 -25 -56 -32 -96 -7 -39 -19 -79 -28 -90 -23 -28 -175 -80
-234 -80 -26 0 -79 12 -118 26 -40 14 -73 24 -75 22 -2 -2 3 -31 11 -64 12
-47 13 -70 5 -100 -11 -40 -68 -117 -111 -149 -37 -29 -123 -31 -204 -7 l-68
21 6 -32 c19 -103 18 -145 -4 -211 -12 -36 -25 -68 -29 -70 -4 -3 -19 22 -33
55 -23 58 -24 63 -10 113 8 28 15 92 16 141 1 76 -3 97 -22 137 -30 61 -99
129 -168 165 l-54 28 0 58 0 59 40 -35 c61 -52 204 -130 208 -113 2 8 -6 51
-17 96 -25 99 -26 124 -6 180 21 60 19 152 -4 198 -37 71 -204 212 -251 212
-26 0 -30 5 -45 58 -9 31 -18 64 -21 73 -4 13 4 12 44 -8 31 -15 75 -26 120
-30 l72 -6 -16 44 c-8 24 -20 87 -25 139 -13 126 -32 180 -84 238 -70 78 -177
122 -297 122 -34 0 -40 4 -57 38 l-20 39 54 -5 c53 -4 148 19 161 39 3 5 -7
25 -23 43 -15 18 -69 83 -120 143 -109 130 -141 149 -230 140 -32 -4 -79 -14
-105 -22 -34 -12 -52 -14 -65 -6 -17 9 -17 10 2 16 49 15 105 49 140 85 21 22
37 41 34 43 -34 28 -225 150 -252 162 -41 17 -164 20 -215 6 -17 -5 -51 -25
-74 -44 -42 -34 -44 -35 -77 -21 l-35 15 38 25 c26 18 46 44 62 81 14 31 24
57 22 58 -10 9 -522 65 -540 60 -32 -10 -75 -53 -82 -81 -5 -20 -13 -24 -42
-24 -30 0 -34 2 -25 18 5 10 27 30 48 44 21 14 76 50 123 81 158 104 196 140
240 225 21 42 55 105 75 140 20 34 32 62 26 62 -10 0 -123 -69 -269 -164 -96
-62 -172 -96 -307 -135 -191 -56 -285 -119 -421 -283 -108 -129 -262 -252
-409 -325 -33 -17 -114 -51 -181 -76 -134 -50 -362 -146 -439 -184 -69 -35
-127 -84 -178 -151 -81 -105 -91 -141 -59 -202 l19 -34 -59 -38 c-84 -55 -150
-119 -233 -228 -77 -100 -194 -220 -217 -220 -33 0 -124 -55 -180 -107 -78
-74 -108 -136 -108 -223 0 -51 6 -78 29 -127 l29 -61 39 9 c58 13 58 13 96
-49 20 -32 57 -78 82 -101 25 -23 45 -43 45 -45 0 -11 -135 -39 -190 -39 -70
-1 -116 17 -154 58 -41 44 -189 164 -197 160 -4 -3 -10 -38 -14 -79 -10 -104
10 -161 77 -221 27 -25 55 -45 62 -46 6 0 2 -4 -9 -9 -11 -5 -80 -9 -152 -9
-73 -1 -133 -4 -133 -8 0 -5 53 -30 118 -58 l117 -50 130 0 c104 0 147 5 215
23 111 31 215 74 290 123 34 22 65 37 69 34 5 -2 62 50 127 117 l118 121 15
-24 c44 -69 115 -109 191 -109 28 0 31 -2 20 -15 -10 -12 -42 -15 -166 -15
-85 0 -154 -3 -154 -7 0 -5 25 -36 55 -69 56 -64 110 -94 165 -94 17 0 30 -4
30 -8 0 -5 18 -17 40 -27 35 -16 40 -22 40 -52 0 -103 80 -169 238 -197 38 -6
38 -3 12 59 -11 26 -20 48 -20 50 0 1 19 -1 43 -7 51 -12 104 -4 169 24 l48
21 -74 78 c-111 115 -119 177 -36 272 52 59 97 79 255 118 189 46 245 79 294
178 23 45 44 111 39 117 -3 2 -29 -1 -59 -7 -58 -13 -263 -18 -251 -7 19 18
167 91 248 122 182 69 239 111 274 202 l18 50 -121 -3 c-67 -2 -148 -8 -180
-14 -33 -6 -61 -8 -64 -6 -2 3 22 26 53 52 63 51 177 112 264 140 30 10 78 29
105 42 59 27 115 29 285 8 63 -7 117 -12 119 -10 7 8 -69 102 -126 156 -64 62
-135 102 -214 122 -27 7 -50 17 -50 23 -1 15 108 54 169 60 44 5 70 1 113 -15
67 -26 135 -85 144 -126 19 -96 63 -128 143 -105 74 22 145 24 180 6 38 -20
149 -109 179 -145 29 -33 30 -87 3 -173 -11 -34 -20 -75 -20 -89 0 -34 33 -63
101 -88 73 -28 136 -83 165 -145 41 -87 26 -166 -50 -267 -70 -92 -66 -110 42
-197 50 -39 67 -91 58 -175 -8 -81 -37 -132 -117 -207 -86 -82 -88 -99 -22
-196 56 -82 61 -116 39 -264 -20 -137 -60 -220 -127 -264 -26 -17 -54 -43 -63
-57 -15 -25 -14 -28 25 -80 65 -88 87 -202 53 -275 -9 -19 -40 -59 -70 -89
-84 -85 -83 -105 10 -198 58 -58 73 -97 63 -164 -7 -41 -68 -123 -132 -176
l-45 -38 -73 15 c-39 8 -88 18 -107 21 -29 5 -43 17 -83 75 l-48 70 172 0 172
0 -24 26 c-48 53 -194 175 -261 220 -119 80 -245 111 -326 83 -29 -10 -36 -8
-80 25 -27 19 -69 47 -93 61 l-44 25 40 0 c22 0 60 5 85 11 48 10 170 68 170
80 0 4 -28 25 -62 45 -35 21 -91 59 -124 85 -90 68 -162 90 -314 96 -118 5
-128 3 -170 -19 -25 -14 -54 -38 -65 -54 l-20 -29 -87 30 -87 30 42 18 c56 23
137 94 199 176 l50 66 -32 3 c-17 2 -63 -2 -101 -7 -62 -10 -81 -9 -178 14
-238 55 -347 18 -449 -151 -4 -6 -23 -9 -44 -6 l-38 4 58 37 c31 21 73 55 93
77 36 41 99 128 99 138 0 10 -435 6 -491 -4 -114 -22 -246 -115 -293 -209 -24
-46 -24 -46 -94 -56 l-70 -11 52 61 c55 62 190 264 183 271 -10 10 -509 -147
-577 -181 -78 -40 -129 -114 -145 -210 -12 -78 -15 -84 -56 -108 -40 -24 -43
-25 -87 -9 l-46 15 -39 -44 -39 -44 7 50 c21 151 51 205 191 340 63 61 114
113 114 117 0 13 -164 -3 -231 -23 -101 -29 -169 -85 -279 -230 -163 -215
-242 -311 -307 -375 -67 -66 -154 -125 -222 -149 -40 -14 -41 -14 -41 9 0 26
35 60 103 102 33 20 45 33 41 44 -37 84 -46 126 -35 169 16 60 59 116 141 186
39 33 70 63 70 67 0 4 -10 27 -22 50 -37 70 -36 154 2 268 41 121 50 234 25
309 -15 47 -104 161 -125 161 -15 0 -30 -91 -30 -188 0 -155 -24 -216 -182
-461 -123 -189 -179 -339 -208 -552 -15 -114 -46 -230 -79 -303 -15 -34 -90
-155 -166 -271 -76 -115 -160 -251 -187 -301 -108 -205 -116 -403 -20 -474
l30 -22 -34 -78 c-55 -126 -67 -196 -59 -337 9 -160 -3 -214 -63 -301 -126
-185 -157 -369 -84 -514 18 -35 39 -72 47 -83 15 -19 16 -19 50 -1 33 18 37
18 72 3 82 -36 185 -46 258 -26 36 10 105 66 105 86 0 4 -54 31 -120 58 -66
28 -114 51 -107 52 7 2 68 -5 137 -15 l125 -17 -1 -85 c-1 -96 -21 -155 -78
-224 -69 -85 -214 -130 -333 -106 -68 14 -94 27 -191 92 -41 27 -76 48 -78 45
-3 -2 14 -47 36 -98 42 -97 86 -153 145 -185 l33 -18 -26 -20 c-14 -11 -59
-30 -101 -42 l-76 -22 -3 -40 c-3 -39 -2 -40 49 -66 156 -77 453 33 674 249
67 65 108 146 133 265 49 223 49 325 0 575 -22 112 -28 241 -15 305 7 34 9 36
42 32 44 -5 44 -15 0 -31 -19 -7 -35 -17 -35 -22 0 -19 30 -68 51 -83 21 -14
21 -15 -11 -31 -21 -11 -30 -21 -26 -31 3 -9 6 -31 6 -50 0 -31 3 -34 29 -34
l29 0 -16 -41 -16 -42 33 -29 c17 -16 45 -31 62 -35 36 -7 46 -20 20 -28 -27
-8 -116 -124 -99 -130 7 -3 58 -14 112 -25 55 -11 101 -22 103 -24 2 -2 -30
-32 -71 -66 -42 -33 -76 -65 -76 -70 0 -15 58 -58 95 -70 63 -21 175 14 190
60 9 28 21 25 42 -11 11 -19 41 -41 80 -61 57 -28 69 -30 145 -27 71 3 94 9
153 39 58 29 77 45 112 95 52 76 46 80 -97 79 l-105 -1 40 41 c23 23 50 66 62
96 l20 55 -97 5 c-113 6 -131 16 -150 85 -19 69 -7 106 66 193 79 95 170 221
195 270 11 20 19 57 19 82 0 46 -25 135 -40 145 -7 4 -206 -140 -257 -188 -13
-11 -26 -18 -29 -14 -10 9 31 85 120 223 45 71 83 143 91 173 l13 52 -40 29
c-23 17 -44 30 -48 30 -4 0 -13 -13 -20 -29 -18 -44 -50 -69 -131 -102 -40
-16 -88 -41 -106 -55 l-33 -25 0 24 c0 53 34 122 84 172 41 41 95 73 273 164
196 99 231 121 297 182 76 71 162 167 155 173 -4 4 -183 -18 -247 -29 l-33 -6
16 32 c28 53 97 121 150 145 60 28 154 32 229 9 82 -25 90 -22 109 38 42 131
106 198 224 238 111 37 184 18 280 -72 44 -42 58 -49 92 -49 32 0 49 7 78 34
104 93 135 100 282 66 159 -38 241 -98 241 -177 0 -18 6 -49 14 -68 18 -42 50
-52 111 -35 50 14 135 8 213 -15 92 -28 132 -100 132 -241 l0 -84 63 0 c167 0
325 -164 302 -314 -20 -126 -7 -155 76 -179 63 -19 146 -73 164 -106 21 -41
45 -144 45 -192 0 -26 -11 -67 -25 -98 -14 -30 -24 -55 -23 -56 2 -1 38 -14
81 -29 102 -37 138 -62 164 -116 58 -120 68 -275 24 -377 -13 -28 -20 -56 -17
-61 3 -5 42 -24 86 -42 189 -76 276 -230 224 -395 -30 -93 0 -131 118 -155 50
-9 69 -20 108 -56 60 -56 170 -217 170 -248 0 -13 -9 -68 -20 -121 -28 -136
-29 -131 33 -138 245 -30 447 -173 447 -317 0 -21 3 -65 6 -99 7 -61 7 -61 39
-61 18 0 57 5 86 10 86 17 196 13 288 -9 46 -11 85 -21 86 -23 2 -2 -4 -34
-11 -73 -24 -116 -29 -383 -10 -495 20 -112 59 -233 114 -349 40 -85 40 -85
25 -125 -9 -23 -17 -43 -19 -44 -6 -8 -641 302 -817 399 -528 292 -893 678
-1130 1197 -113 246 -185 521 -247 941 -17 115 -18 148 -9 232 10 89 9 102 -8
136 -14 29 -26 40 -54 46 -36 8 -36 8 -41 72 -11 131 -104 267 -222 325 -108
53 -253 57 -344 11 -34 -17 -113 -107 -100 -115 1 -1 35 -12 74 -24 82 -26
170 -91 124 -92 -28 0 -196 -34 -221 -45 -12 -4 -23 6 -42 38 -55 93 -143 145
-261 154 -186 14 -339 -54 -430 -191 -61 -92 -70 -86 110 -86 147 0 162 -2
196 -23 38 -22 88 -81 88 -102 0 -7 -9 -20 -20 -30 -19 -17 -21 -17 -72 5 -66
28 -120 31 -146 6 -11 -10 -35 -50 -52 -90 l-32 -73 -55 16 c-44 12 -65 13
-108 4 -140 -30 -245 -111 -304 -237 -21 -44 -44 -103 -51 -129 -13 -48 -9
-75 21 -154 l9 -23 59 30 c33 16 81 52 108 79 52 53 81 64 191 76 l62 6 0 -64
c0 -83 16 -103 116 -147 226 -98 523 -297 680 -455 183 -185 274 -395 274
-633 0 -161 -46 -299 -144 -430 -25 -34 -46 -65 -46 -70 2 -21 64 -75 130
-112 92 -52 88 -49 69 -63 -9 -7 -27 -30 -42 -53 -20 -33 -53 -57 -163 -121
l-137 -81 79 -52 c96 -66 143 -80 264 -83 86 -2 100 1 153 26 39 20 66 42 85
70 38 56 62 119 62 163 l0 36 64 -7 c61 -7 66 -6 91 19 30 30 30 40 1 181 -20
94 -15 140 23 235 l26 67 42 -14 c39 -13 48 -24 127 -152 120 -194 157 -241
349 -438 392 -402 802 -695 1356 -972 163 -82 379 -180 426 -195 11 -3 33 -24
49 -47 15 -22 36 -45 46 -51 17 -11 16 -16 -15 -77 -42 -85 -116 -154 -227
-215 -49 -26 -88 -51 -88 -54 0 -17 115 -74 164 -82 119 -19 293 37 397 128
45 40 96 123 119 195 9 29 20 41 48 53 57 23 108 62 135 102 14 20 78 167 142
326 191 476 220 520 460 703 55 42 115 93 134 112 l34 36 -7 -35 c-42 -209
-51 -386 -36 -675 l12 -239 59 -203 c107 -369 178 -511 337 -675 l75 -77 -26
-63 c-14 -35 -28 -85 -32 -111 -7 -44 -11 -50 -64 -81 -31 -19 -93 -56 -139
-84 -108 -66 -201 -96 -395 -127 -88 -14 -238 -41 -335 -60 -280 -54 -337 -60
-587 -59 -183 0 -259 5 -370 22 -311 48 -519 131 -708 281 -180 143 -438 479
-578 753 -74 146 -109 173 -167 132 -26 -18 -18 -23 -128 77 -104 96 -161 104
-324 44 -109 -39 -125 -48 -228 -129 -70 -56 -69 -61 22 -71 34 -4 100 -16
148 -27 l87 -19 -53 -64 c-30 -34 -66 -84 -81 -109 -19 -32 -32 -45 -43 -41
-85 33 -201 31 -270 -4 -23 -12 -66 -46 -94 -75 -115 -117 -156 -234 -108
-310 12 -20 26 -36 32 -36 5 0 28 13 51 30 59 41 120 54 192 41 32 -6 74 -11
92 -11 30 0 33 -3 32 -27 -2 -51 -12 -68 -41 -69 -16 0 -60 -1 -99 -2 l-72 -2
7 -52 c4 -29 9 -67 12 -84 5 -30 4 -32 -33 -38 -60 -11 -108 -50 -159 -128
-143 -221 -156 -332 -57 -506 25 -45 49 -82 52 -82 3 1 24 39 46 86 21 48 57
106 78 130 38 43 123 102 133 92 2 -3 7 -29 11 -57 3 -28 10 -54 15 -57 4 -3
54 13 111 35 324 126 549 126 800 0 244 -124 449 -376 480 -593 9 -64 7 -89
-17 -219 -15 -81 -25 -151 -22 -156 3 -4 27 -14 53 -21 27 -7 51 -16 55 -19 8
-7 -20 -88 -51 -150 -11 -20 -65 -79 -121 -131 l-103 -94 59 -19 c36 -11 93
-19 144 -20 85 -2 86 -2 200 55 158 79 193 106 230 182 28 55 31 71 28 137
l-3 74 79 32 c44 18 84 37 89 42 6 6 -15 48 -52 106 -86 137 -105 191 -106
295 0 78 3 90 33 146 18 33 55 82 81 108 l47 47 125 -37 c151 -44 219 -57 453
-89 662 -89 1155 -92 1691 -9 130 20 322 66 408 97 37 13 67 21 67 16 0 -5 28
-9 63 -9 46 0 80 8 132 30 38 17 71 30 72 30 2 0 3 -8 3 -17 0 -10 7 -36 15
-58 17 -49 19 -111 3 -156 -6 -19 -42 -85 -80 -148 l-70 -114 44 7 c139 22
256 93 339 204 113 153 127 236 71 409 l-29 92 28 27 c27 26 50 80 64 149 3
18 -13 120 -40 259 -45 221 -46 233 -36 311 16 114 46 218 89 300 28 53 66
100 162 196 69 70 154 146 190 169 l65 41 7 -53 c8 -65 31 -130 58 -168 l20
-29 -25 -37 c-14 -20 -30 -55 -36 -78 -17 -62 -5 -256 21 -338 l21 -67 -25
-38 c-55 -83 -67 -156 -42 -251 l15 -54 -36 -46 c-62 -81 -90 -167 -99 -307
-6 -82 -13 -105 -72 -245 -39 -93 -67 -175 -70 -204 -4 -45 -10 -55 -63 -104
-60 -55 -129 -171 -129 -217 0 -16 -17 -33 -64 -64 -69 -44 -133 -110 -172
-177 -20 -34 -35 -46 -82 -63 -90 -34 -181 -115 -212 -191 -8 -18 -20 -30 -31
-30 -31 0 -156 -67 -200 -107 -22 -20 -46 -48 -54 -63 -11 -21 -28 -31 -79
-44 -90 -25 -182 -70 -239 -118 -36 -30 -54 -38 -71 -34 -27 7 -151 -26 -210
-56 -22 -11 -57 -33 -76 -48 -31 -25 -45 -28 -130 -32 -87 -4 -102 -8 -180
-47 -82 -42 -89 -43 -185 -45 -90 -1 -107 -4 -169 -34 -51 -24 -77 -31 -101
-26 -44 8 -216 -13 -267 -33 -24 -9 -63 -29 -87 -45 -42 -28 -45 -28 -75 -14
-109 52 -205 40 -289 -34 l-34 -29 -69 23 c-134 46 -262 41 -347 -13 -27 -17
-31 -17 -61 -2 -45 23 -248 29 -280 8 -21 -14 -27 -13 -72 9 -71 34 -178 48
-262 34 -65 -11 -70 -10 -127 17 -55 26 -70 28 -184 29 -116 0 -125 2 -134 21
-19 44 -239 117 -291 97 -10 -4 -36 9 -69 34 -65 49 -100 68 -163 83 -27 7
-83 32 -124 55 -89 52 -176 84 -245 91 -44 5 -52 9 -65 36 -27 57 -177 127
-269 127 -46 0 -51 3 -71 35 -46 74 -143 128 -267 147 -67 11 -74 14 -97 48
-68 104 -192 188 -308 211 -45 9 -62 17 -68 33 -43 114 -66 143 -140 174 -25
11 -76 25 -113 32 -47 9 -70 18 -73 29 -31 106 -124 203 -215 224 -21 5 -28
15 -34 44 -11 61 -39 104 -111 174 -71 68 -117 98 -168 108 -27 6 -30 12 -42
67 -22 107 -57 160 -128 189 -27 12 -41 26 -52 53 -57 144 -122 218 -235 266
l-65 29 0 61 c0 78 -21 119 -82 156 -75 46 -82 55 -82 109 0 42 -6 57 -43 107
-43 59 -94 104 -139 125 -21 9 -26 21 -35 87 -6 43 -14 85 -18 94 -6 15 -3 16
47 2 108 -28 208 -12 327 52 62 34 65 35 196 37 l133 2 -15 -29 c-47 -91 -66
-218 -47 -315 l6 -31 57 41 c130 95 230 155 332 200 59 26 144 71 189 99 104
67 134 114 136 212 l1 67 47 36 46 35 0 -109 c0 -71 5 -123 15 -152 18 -50 96
-170 108 -166 8 2 43 102 67 191 7 26 42 92 78 145 97 144 144 247 150 329 6
89 -18 174 -59 212 l-30 27 17 44 c19 50 34 71 34 48 0 -29 50 -119 90 -163
42 -45 169 -136 191 -136 6 0 9 6 6 13 -47 125 -53 244 -17 377 12 47 26 111
30 143 25 174 -74 385 -190 403 -30 5 -41 12 -45 28 -2 11 -9 44 -14 71 -6 28
-14 61 -17 74 -7 23 -6 24 39 17 51 -8 149 7 210 31 28 11 43 26 53 49 21 50
18 60 -24 72 -93 28 -166 102 -222 226 -59 129 -175 199 -337 201 -84 2 -96 4
-138 32 l-46 30 78 12 c69 11 213 61 237 81 14 13 -4 88 -22 95 -9 3 -49 10
-88 14 -77 9 -137 34 -244 101 -91 57 -146 72 -280 77 -142 5 -172 -7 -210
-82 -14 -27 -25 -50 -25 -51 0 -1 -38 5 -85 12 -47 7 -110 13 -140 13 l-55 1
54 36 c92 62 176 156 206 231 l26 66 -34 35 -35 35 -29 -20 c-80 -57 -158 -82
-331 -108 -128 -18 -209 -55 -291 -131 -71 -65 -97 -121 -88 -189 l6 -44 -75
-40 c-54 -28 -74 -34 -69 -23 25 65 35 359 14 406 -8 16 -27 30 -57 41 -25 8
-46 15 -47 15 -2 0 -5 -22 -9 -49 -11 -83 -59 -162 -172 -281 -109 -116 -144
-172 -169 -267 -29 -112 -16 -187 42 -232 l27 -22 -23 -37 c-20 -33 -140 -277
-169 -342 -9 -22 -11 -17 -11 36 -1 69 -22 147 -46 174 -15 17 -15 22 0 74 26
88 -2 192 -62 231 -21 14 -22 18 -9 38 27 42 28 82 6 148 -12 35 -32 78 -45
95 l-24 32 19 38 c34 66 20 147 -35 198 l-27 25 27 68 c22 54 26 78 22 119
-14 134 -68 161 -296 146 -119 -8 -125 -10 -148 -36 -23 -27 -24 -34 -21 -142
2 -63 2 -114 2 -114 -1 0 -17 6 -35 14 -19 7 -51 16 -72 20 l-37 7 0 -61 c0
-47 5 -68 23 -91 20 -29 22 -44 27 -218 5 -182 6 -189 31 -227 15 -21 49 -52
77 -69 49 -29 51 -32 61 -91 17 -94 16 -98 -15 -78 -25 17 -174 34 -174 20 0
-4 14 -27 31 -52 55 -80 70 -127 79 -248 5 -62 15 -129 24 -149 19 -46 95
-128 152 -164 33 -21 45 -36 53 -67 5 -22 8 -42 5 -45 -2 -3 -49 7 -104 21
-55 14 -100 21 -100 16 0 -17 261 -493 283 -516 30 -33 64 -49 119 -57 42 -6
50 -12 72 -49 l24 -41 -126 -5 -127 -5 126 -93 c153 -113 190 -159 192 -242
l2 -57 -55 22 c-30 12 -72 30 -92 40 -41 20 -51 16 -80 -33 l-17 -29 78 -101
c44 -56 120 -165 170 -244 114 -179 110 -175 205 -247 58 -44 91 -79 122 -128
24 -37 44 -71 44 -75 0 -4 -19 0 -42 10 -33 13 -70 17 -163 16 -66 -1 -131 -6
-145 -11 -23 -10 -21 -12 55 -64 98 -67 140 -108 259 -257 106 -133 150 -176
244 -236 80 -51 139 -73 155 -57 8 8 25 -13 63 -72 29 -45 52 -83 50 -84 -1
-1 -24 4 -51 12 -68 21 -141 19 -221 -6 -59 -18 -66 -23 -51 -33 169 -104 245
-169 342 -291 126 -158 208 -209 335 -210 l75 0 78 -81 77 -80 -109 4 c-92 4
-120 1 -178 -17 -106 -32 -106 -34 -22 -76 91 -46 219 -140 341 -251 145 -132
247 -172 402 -160 l79 6 78 -70 79 -69 -49 6 c-86 10 -173 -13 -258 -69 -41
-27 -74 -51 -71 -53 2 -2 47 -11 101 -19 54 -9 117 -26 139 -37 22 -11 80 -58
127 -102 99 -93 154 -127 261 -156 76 -21 275 -30 282 -13 2 5 73 -39 157 -96
l155 -105 -55 6 c-185 21 -228 20 -310 -4 -43 -13 -79 -27 -79 -30 0 -15 102
-90 165 -122 39 -19 112 -62 163 -96 187 -123 289 -160 472 -168 96 -4 129 -2
204 17 l89 21 103 -52 c57 -28 102 -55 99 -59 -3 -4 -31 -10 -63 -14 -79 -9
-163 -51 -245 -122 -63 -55 -67 -59 -45 -65 13 -4 51 -7 85 -8 69 -1 343 -61
549 -121 181 -52 258 -64 414 -63 136 1 178 7 303 45 52 15 67 24 67 39 0 15
7 19 33 19 57 0 61 -13 14 -47 -38 -26 -146 -168 -136 -177 2 -2 27 -11 54
-19 41 -13 111 -17 385 -19 294 -3 344 -1 404 15 85 22 218 83 299 138 55 38
69 43 146 50 47 5 101 11 120 14 l34 4 -25 -27 c-36 -39 -58 -74 -122 -190
-31 -56 -55 -106 -52 -110 2 -4 21 -16 41 -27 l37 -19 79 42 c105 57 151 72
222 73 68 1 539 124 605 158 56 29 114 99 153 186 l34 75 80 18 c44 10 81 18
83 17 2 -2 -31 -80 -73 -175 -42 -94 -74 -174 -71 -177 3 -4 66 21 139 55 73
34 209 89 302 122 256 91 363 147 455 240 57 56 86 97 119 162 l44 87 76 31
c42 16 79 30 82 30 3 0 -3 -33 -13 -72 -13 -47 -17 -90 -14 -122 6 -50 34
-136 45 -136 3 0 35 39 71 86 72 95 146 154 223 180 72 23 159 68 247 126 141
94 172 136 231 309 28 84 56 128 82 129 4 0 7 -27 7 -61 0 -44 8 -81 31 -140
18 -43 35 -79 40 -79 4 0 20 32 35 71 36 93 87 148 218 239 132 91 287 248
324 329 20 43 27 78 31 152 6 94 7 97 43 138 21 22 40 41 42 41 2 0 6 -37 10
-82 6 -71 42 -255 52 -267 2 -2 23 8 48 23 40 23 48 35 82 118 45 108 89 177
173 273 33 39 74 96 91 127 41 76 71 196 73 288 1 64 -2 82 -24 122 l-27 46
25 41 c13 23 25 41 27 41 1 0 2 -21 2 -47 -2 -135 84 -252 211 -288 18 -5 25
0 36 27 8 18 16 61 19 96 5 48 20 91 66 190 68 144 106 255 127 379 31 175 15
293 -51 378 l-35 47 22 66 c12 37 24 70 28 74 4 4 22 -32 40 -80 71 -182 107
-237 195 -294 33 -21 62 -38 67 -38 4 0 10 39 13 88 4 48 15 141 26 207 29
181 32 231 20 376 -19 223 -59 337 -152 435 l-49 52 17 113 c9 63 18 116 20
118 5 6 102 -68 128 -99 13 -16 32 -50 41 -75 14 -34 24 -47 44 -51 14 -3 33
-8 42 -10 27 -7 61 197 61 356 -1 145 -22 245 -74 343 -37 70 -116 154 -177
188 l-41 23 0 63 c0 35 2 63 4 63 1 0 63 -90 136 -200 l133 -200 43 0 c50 0
50 -1 58 125 8 133 -55 449 -109 540 -39 68 -85 116 -128 135 l-38 17 58 19
c41 13 86 19 153 19 134 0 174 -20 236 -115 116 -180 143 -288 151 -596 4
-150 2 -243 -6 -290 -7 -38 -65 -227 -129 -421 -64 -194 -114 -355 -110 -358
3 -3 45 18 94 47 83 50 93 53 155 53 56 0 72 -4 107 -29 84 -58 127 -204 119
-401 -14 -304 -153 -585 -414 -835 -123 -118 -239 -207 -508 -389 -115 -78
-211 -146 -213 -150 -2 -5 28 -21 67 -35 142 -55 201 -117 247 -261 41 -129
29 -276 -31 -395 -49 -98 -222 -256 -396 -365 -318 -197 -726 -312 -1211 -339
-125 -6 -230 -15 -234 -18 -3 -4 15 -36 40 -72 65 -97 89 -165 90 -261 1 -68
-3 -88 -27 -137 -53 -109 -248 -266 -455 -368 -244 -120 -756 -264 -1192 -334
-251 -41 -425 -56 -780 -66 -491 -14 -759 -28 -900 -45 -140 -17 -614 -101
-645 -114 -17 -7 -6 -15 65 -49 85 -41 85 -41 390 -76 291 -34 322 -36 634
-36 823 0 1691 98 2376 270 941 235 1685 618 2383 1227 178 156 600 580 703
708 449 556 857 1376 1048 2105 162 617 193 1138 111 1800 -73 576 -163 936
-362 1435 -184 465 -378 803 -753 1315 -372 509 -707 847 -1099 1111 -121 82
-190 118 -285 149 -95 31 -139 30 -176 -5 -51 -49 -64 -100 -55 -217 15 -202
14 -206 -40 -300 -65 -112 -114 -177 -210 -277 -178 -187 -313 -266 -653 -382
-79 -27 -84 -27 -120 -12 l-37 16 32 11 c47 17 49 22 13 63 l-34 38 45 12 c24
6 70 17 102 23 31 6 57 14 57 18 -1 11 -132 90 -201 121 -145 65 -347 81 -604
48 -97 -13 -142 -14 -235 -5 -63 6 -118 13 -122 17 -4 3 38 22 93 40 90 31
100 37 95 55 -3 12 -6 33 -6 47 0 24 -7 28 -91 54 -73 22 -103 27 -151 22
l-60 -5 38 25 c22 15 59 43 84 63 124 103 230 143 375 143 113 1 167 -11 354
-79 68 -24 125 -43 127 -41 2 1 -49 86 -112 187 -155 248 -158 256 -159 405 0
104 3 126 23 170 30 65 73 108 136 137 46 21 65 23 191 22 122 -1 151 -4 228
-28 216 -65 337 -128 474 -244 56 -47 94 -72 119 -76 20 -4 38 -5 40 -3 3 2
-2 53 -11 112 -31 224 -16 316 68 400 35 34 69 57 101 68 156 53 449 -27 641
-176 139 -108 199 -174 506 -553 208 -257 341 -414 349 -414 4 0 14 41 23 91
27 152 81 239 180 291 58 31 177 31 261 0 141 -52 232 -129 331 -281 132 -201
251 -491 309 -751 61 -276 68 -344 72 -680 3 -173 7 -334 10 -357 l5 -43 99
50 c144 72 244 76 378 15 160 -73 306 -323 358 -613 66 -370 -14 -997 -181
-1412 -41 -101 -71 -160 -154 -301 l-21 -35 128 0 c119 1 131 -1 164 -23 76
-53 110 -145 130 -359 15 -157 2 -289 -47 -468 -148 -540 -412 -1068 -774
-1549 -233 -310 -397 -492 -821 -915 -388 -387 -467 -478 -574 -667 -31 -55
-56 -103 -56 -107 0 -18 247 122 350 200 301 226 953 841 1239 1169 382 437
631 803 950 1392 410 759 597 1420 652 2298 35 575 -40 1190 -226 1835 -284
985 -747 1804 -1375 2430 -547 547 -1318 1032 -2055 1294 -626 222 -1218 316
-1905 303 -389 -7 -655 -38 -1070 -121 -527 -106 -797 -198 -1017 -345 -162
-109 -290 -273 -309 -396 l-6 -41 59 -18 c89 -28 220 -97 308 -163 194 -145
305 -315 357 -546 17 -77 19 -116 15 -242 -6 -186 -23 -249 -117 -440 -80
-163 -171 -305 -294 -460 -48 -60 -91 -116 -95 -123 -5 -9 -35 -12 -116 -10
l-108 3 176 120 c97 66 176 123 177 127 0 12 -152 21 -269 15 -122 -5 -211
-27 -406 -98 -77 -28 -107 -33 -207 -37 -118 -4 -144 3 -93 26 40 18 114 76
112 86 -2 5 -66 38 -142 73 -171 78 -244 92 -390 75 -118 -15 -125 -15 -125 1
0 8 -14 34 -32 57 -17 24 -34 58 -38 76 l-7 32 36 -12 c65 -23 135 -26 255
-11 65 8 121 17 124 19 3 3 -6 9 -19 14 -13 5 -50 19 -82 31 -123 45 -130 53
-193 228 -19 52 -41 107 -49 122 -14 29 -122 131 -137 131 -9 0 -11 161 -2
185 6 14 11 12 38 -14 42 -40 289 -222 294 -216 3 2 -18 58 -47 124 -28 66
-51 131 -51 146 0 15 10 63 22 108 13 52 22 114 22 168 1 77 -2 89 -27 127
-16 25 -45 51 -72 64 l-44 23 41 74 c46 82 42 83 72 -20 20 -69 76 -136 150
-179 29 -16 56 -30 60 -30 3 0 3 44 0 98 -8 113 6 180 61 303 41 91 46 169 16
248 l-18 49 56 56 56 55 1 -62 c1 -34 9 -80 18 -102 20 -49 78 -145 86 -145 4
0 33 37 65 83 32 45 83 109 113 142 102 114 173 301 132 350 -7 8 -10 18 -7
21 11 11 150 94 153 91 2 -1 -1 -20 -6 -42 -15 -62 -12 -169 6 -241 9 -36 20
-63 24 -62 5 2 75 75 155 163 177 192 199 230 200 350 l0 80 65 46 c36 25 76
53 90 62 l25 16 -3 -180 c-4 -173 -3 -180 15 -171 10 6 93 86 184 179 139 141
169 176 182 217 19 55 22 143 8 193 -9 30 -7 35 29 63 21 16 40 30 42 30 3 0
1 -24 -4 -52 -9 -53 -2 -246 11 -293 6 -24 12 -20 106 87 270 304 285 326 285
431 0 35 -5 79 -11 96 -11 32 -10 34 37 76 l49 43 6 -92 c7 -89 34 -187 54
-192 6 -2 33 25 60 59 28 34 89 107 136 162 47 55 96 120 109 145 31 60 37
156 17 237 l-16 62 34 57 c19 32 37 65 40 75 5 14 23 -4 82 -81 41 -55 78
-100 82 -100 9 0 25 66 56 235 14 72 38 180 54 240 33 122 38 180 17 228 -17
43 -76 93 -126 108 -40 12 -40 13 -40 62 0 43 2 48 18 42 60 -24 145 -37 196
-31 31 4 56 9 56 12 0 7 -150 375 -164 402 -22 41 -59 72 -137 111 -63 32 -74
42 -104 97 l-34 61 92 2 c51 2 105 3 120 4 27 2 31 -3 52 -60 12 -35 38 -88
56 -119 75 -125 276 -272 357 -261 20 3 47 8 60 12 17 6 22 3 22 -9 0 -38 32
-78 78 -98 35 -16 69 -21 138 -22 l91 -1 31 -46 c17 -26 45 -53 66 -63 46 -22
142 -38 179 -30 15 3 27 1 27 -4 0 -6 -28 -13 -62 -17 -290 -30 -480 -112
-580 -249 -34 -47 -34 -53 -5 -62 12 -4 42 -15 66 -26 l43 -18 -96 -91 c-194
-183 -296 -366 -296 -528 0 -73 24 -96 94 -88 28 4 60 9 72 12 21 6 21 4 27
-212 7 -230 13 -270 62 -384 44 -102 96 -133 153 -93 13 9 24 14 26 13 1 -2
29 -42 62 -89 75 -109 212 -252 289 -302 78 -51 204 -90 275 -86 57 3 54 1
105 81 9 14 20 13 100 -14 132 -43 204 -59 327 -70 124 -11 248 0 300 27 36
18 108 83 108 97 0 4 -16 29 -35 54 -19 25 -35 49 -35 52 0 3 66 29 147 56 83
28 172 66 203 86 106 68 183 182 194 286 l5 52 -35 7 c-20 4 -55 4 -79 1 l-44
-6 95 145 c135 206 139 214 139 356 0 65 3 118 8 118 4 0 7 -6 7 -13 0 -7 12
-20 28 -29 15 -10 40 -28 57 -42 l30 -24 -41 -48 c-60 -73 -60 -69 -13 -126
36 -42 62 -59 154 -103 l110 -52 -48 -23 c-26 -12 -54 -32 -62 -43 -20 -29
-19 -80 3 -106 32 -39 143 -82 335 -132 193 -50 228 -64 247 -98 11 -21 7 -24
-60 -36 -116 -21 -170 -59 -170 -117 0 -59 75 -100 377 -209 141 -50 184 -72
222 -113 l24 -26 -136 0 -136 0 27 -65 c32 -77 127 -187 210 -244 31 -21 151
-89 266 -152 135 -73 228 -131 260 -161 34 -31 44 -45 31 -43 -215 45 -295 58
-295 46 0 -37 36 -153 57 -186 62 -96 98 -128 282 -249 165 -109 331 -232 346
-256 3 -5 -23 3 -57 17 -71 29 -220 45 -232 24 -11 -18 228 -336 324 -431 60
-59 112 -100 172 -133 48 -27 93 -56 100 -65 7 -9 -17 1 -54 21 -102 57 -168
47 -168 -26 0 -55 53 -129 162 -228 171 -155 231 -220 295 -314 l60 -90 -52 3
c-39 3 -63 -2 -94 -18 l-42 -21 44 -82 c24 -45 67 -122 96 -172 145 -245 344
-659 466 -965 176 -443 259 -752 280 -1051 5 -67 15 -105 42 -170 19 -46 64
-154 99 -239 l63 -155 1 568 0 568 -70 812 c-38 447 -75 855 -81 907 -12 109
-41 235 -64 279 -18 36 -95 91 -126 91 -13 0 -41 -20 -70 -48 l-47 -47 -4 305
c-4 283 -6 309 -26 365 -31 85 -41 101 -69 114 -66 30 -102 0 -132 -108 -11
-41 -22 -76 -25 -78 -2 -2 -7 42 -10 99 -18 324 -29 463 -45 548 -19 105 -30
131 -63 154 -54 38 -115 8 -161 -81 -17 -35 -34 -63 -37 -63 -3 0 -34 120 -69
268 -111 469 -128 517 -225 637 l-24 30 -35 -17 c-30 -14 -38 -26 -51 -72 -9
-31 -19 -56 -21 -56 -11 0 -39 71 -91 230 -65 202 -108 306 -172 415 -43 75
-153 224 -167 228 -13 4 -55 -126 -55 -170 0 -31 -4 -42 -11 -37 -7 4 -77 140
-156 303 -152 311 -195 381 -265 429 -37 25 -126 62 -149 62 -3 0 -12 -20 -18
-45 l-12 -46 -60 53 c-57 50 -143 147 -341 388 -47 58 -135 154 -196 213
l-109 109 -42 -21 c-39 -20 -41 -24 -41 -66 0 -25 -3 -45 -6 -45 -3 0 -100 81
-215 181 -394 338 -518 408 -564 318 -8 -15 -15 -43 -15 -61 0 -60 -10 -65
-83 -46 -36 9 -93 30 -128 47 l-64 30 45 -6 45 -6 -19 22 c-11 11 -16 21 -12
21 4 0 -9 30 -30 68 -121 218 -239 347 -378 413 -44 21 -93 41 -108 45 l-27 6
-3 -85 -3 -85 -75 39 c-41 22 -66 37 -55 35 11 -3 40 -7 65 -11 l45 -6 -91 89
c-95 94 -190 157 -324 214 -65 28 -87 33 -162 33 -47 0 -90 -4 -94 -8 -4 -4 0
-22 11 -39 l18 -31 -24 7 c-171 50 -217 58 -339 58 -88 0 -156 -6 -230 -21
-58 -11 -113 -21 -124 -21 -10 0 -66 28 -124 63 -96 56 -110 69 -159 139 -63
89 -99 122 -168 154 -68 31 -132 38 -197 24 l-54 -12 -57 40 c-31 22 -83 50
-114 62 -76 30 -86 40 -40 40 47 0 92 -18 135 -55 l33 -27 32 36 c27 31 43 39
102 51 100 21 117 19 175 -20 32 -21 64 -35 84 -35 30 0 326 128 326 141 0 10
-448 200 -510 217 -81 21 -210 10 -455 -39 -331 -66 -406 -60 -793 65 l-172
56 -137 -1 c-76 0 -142 -2 -148 -4z m437 -151 c392 -127 492 -134 858 -57 133
27 200 36 280 37 112 1 129 -4 346 -100 l58 -25 -42 -19 -42 -19 -37 24 c-60
41 -106 49 -203 36 -47 -7 -105 -21 -128 -31 -42 -19 -45 -19 -75 -2 -48 26
-184 22 -261 -7 -57 -23 -81 -40 -101 -75 -9 -15 -17 -16 -83 -4 -70 12 -106
8 -164 -17 -15 -6 -18 -2 -18 24 0 26 -20 82 -36 100 -2 2 -18 -6 -36 -17
-100 -61 -175 -48 -313 54 -103 77 -168 109 -249 126 -77 15 -151 -2 -212 -48
-39 -30 -45 -32 -40 -15 3 12 9 30 12 42 10 36 59 48 192 49 122 0 123 0 294
-56z m-169 -94 c56 -21 58 -23 38 -36 -38 -27 -106 -46 -171 -47 -72 -2 -160
19 -160 38 0 15 39 51 70 64 38 17 158 6 223 -19z m148 -157 c22 -14 75 -36
117 -49 l77 -22 -60 -28 c-47 -22 -73 -27 -130 -27 -75 0 -119 14 -196 63 -59
39 -80 38 -129 -6 l-40 -36 64 -62 c110 -104 108 -163 -9 -331 -48 -70 -81
-106 -121 -132 -30 -20 -54 -39 -54 -42 0 -4 36 -14 79 -23 105 -21 190 -61
237 -109 21 -21 35 -41 32 -44 -3 -3 -63 18 -134 46 -200 79 -300 80 -466 2
-43 -20 -78 -40 -78 -45 0 -18 46 -78 68 -88 13 -5 38 -10 56 -10 47 0 103
-21 182 -71 38 -23 86 -52 106 -63 21 -12 38 -24 38 -28 0 -16 -139 -8 -199
11 -33 10 -102 43 -154 73 -137 81 -196 101 -295 102 l-82 1 87 43 c49 23 191
92 317 152 209 101 234 116 291 173 45 45 68 78 83 120 59 158 -3 316 -151
386 -113 53 -200 62 -351 35 -104 -18 -127 -13 -29 7 66 14 103 14 503 10 102
-2 201 2 220 7 57 16 78 13 121 -15z m-1692 -138 c11 -11 6 -27 -38 -104 -29
-50 -56 -93 -61 -96 -13 -8 -22 51 -18 130 3 63 5 71 28 82 28 15 67 9 89 -12z
m2771 -96 c132 -136 276 -293 308 -338 121 -167 172 -377 172 -703 0 -259 -36
-441 -120 -608 -88 -173 -194 -292 -470 -526 -459 -388 -964 -748 -1570 -1116
-265 -162 -335 -214 -475 -353 -239 -239 -440 -541 -523 -788 -17 -49 -32 -90
-34 -92 -2 -3 -26 18 -53 45 l-49 49 12 103 c14 121 15 218 3 271 -8 34 -7 38
7 32 24 -10 182 -19 182 -11 0 16 -61 126 -86 156 -20 23 -28 44 -28 69 0 49
23 189 36 224 8 22 354 354 643 618 150 137 267 222 480 346 476 279 991 584
1048 621 239 156 426 397 488 627 30 108 33 351 6 470 -32 146 -121 294 -265
441 l-59 61 46 -14 c76 -24 253 -28 351 -9 46 10 93 23 105 29 21 12 105 99
105 110 0 7 -114 44 -162 52 -54 9 -93 46 -107 101 -18 72 -58 142 -115 202
l-51 55 55 -29 c30 -16 84 -59 120 -95z m-670 107 c0 -2 -7 -23 -15 -46 -8
-23 -15 -47 -15 -53 0 -10 78 -5 147 9 l32 6 3 -48 3 -49 55 -2 c30 -2 70 -5
88 -9 l33 -5 -6 -54 c-7 -53 -6 -55 20 -65 78 -30 125 1 125 83 1 49 1 51 17
32 12 -16 69 -127 102 -199 7 -17 -133 2 -201 27 -37 13 -106 50 -152 81 -122
82 -236 130 -297 124 -47 -5 -48 -5 -51 26 -2 25 -9 32 -35 39 l-32 10 55 40
c29 22 54 44 54 49 0 4 16 8 35 8 19 0 35 -2 35 -4z m-1908 -55 c10 -9 -43
-202 -53 -195 -34 20 -53 124 -36 188 7 26 10 28 45 21 20 -3 40 -10 44 -14z
m-663 -173 c63 -86 195 -155 336 -178 52 -7 47 -8 -35 -3 -146 9 -257 35 -350
83 -69 36 -130 89 -130 113 0 3 28 -5 62 -19 34 -13 64 -24 66 -24 3 0 2 33
-1 73 -6 71 -6 72 8 34 8 -21 28 -57 44 -79z m2335 80 c-21 -40 -23 -179 -4
-258 16 -69 52 -142 97 -197 19 -24 30 -43 25 -43 -5 0 -80 43 -168 95 -173
104 -207 117 -305 119 l-66 1 46 31 c25 17 63 50 84 73 33 37 37 47 37 95 0
30 -5 67 -10 81 -9 24 -8 26 7 20 37 -15 148 -16 198 -2 76 22 78 22 59 -15z
m-3634 -232 c0 -2 -20 -16 -44 -30 -85 -50 -146 -140 -146 -217 0 -23 -6 -27
-52 -38 -110 -24 -209 -86 -244 -153 -8 -15 -14 -44 -14 -65 0 -51 -6 -58 -70
-83 -30 -12 -69 -35 -86 -52 l-32 -30 8 44 c5 24 5 46 2 49 -4 4 -26 9 -50 12
-43 5 -44 5 -70 -40 -58 -96 -267 -184 -436 -183 -77 1 -72 4 131 81 310 118
395 179 715 516 77 81 160 129 289 167 88 26 99 29 99 22z m5736 -47 c113 -15
209 -48 416 -143 319 -145 695 -334 666 -336 -4 0 -33 7 -65 15 -110 29 -203
0 -221 -68 l-8 -32 -140 -7 c-126 -6 -196 0 -228 20 -5 3 5 17 22 31 16 14 39
47 50 74 25 57 35 55 -148 26 -137 -22 -221 -20 -256 5 -15 12 -18 26 -15 96
2 66 0 82 -11 77 -7 -3 -51 -22 -96 -42 l-84 -37 -45 24 c-75 39 -156 110
-200 177 -24 34 -43 67 -43 72 0 11 60 27 168 43 111 18 143 18 238 5z m-3796
-56 c1 -5 11 -56 24 -116 l24 -107 -37 30 c-20 16 -70 61 -111 98 l-74 69 79
15 c44 9 83 16 88 17 4 0 7 -2 7 -6z m-1854 -208 c395 -49 820 -278 1079 -582
108 -127 276 -481 339 -713 45 -167 57 -270 63 -545 8 -366 -6 -509 -117
-1235 -83 -537 -94 -646 -86 -865 9 -294 32 -456 102 -740 41 -163 88 -268
169 -373 31 -40 53 -77 50 -82 -3 -6 0 -10 8 -10 9 0 35 -16 59 -37 93 -78
180 -95 353 -68 67 11 134 15 171 12 62 -6 200 -54 189 -66 -4 -3 -43 -6 -88
-6 -80 0 -83 -1 -134 -40 -29 -21 -53 -42 -53 -46 0 -12 171 -70 265 -90 169
-35 332 -21 501 44 82 32 168 56 254 72 l35 7 -46 -34 c-25 -18 -89 -62 -142
-98 -53 -36 -97 -68 -97 -72 0 -4 39 -19 88 -35 83 -27 95 -28 282 -27 245 0
322 15 608 119 40 14 78 25 85 22 6 -2 -57 -50 -141 -106 -83 -57 -150 -106
-147 -110 2 -4 49 -14 103 -21 97 -13 104 -12 273 18 192 35 299 48 464 57
l110 5 -90 -33 c-77 -29 -185 -82 -185 -92 0 -1 20 -19 45 -40 44 -35 49 -37
193 -56 180 -23 309 -24 484 -3 144 17 260 13 357 -13 59 -15 89 -33 56 -33
-11 0 -37 -5 -58 -11 l-38 -10 41 -50 c48 -56 56 -44 -67 -89 -35 -12 -60 -26
-58 -31 3 -4 22 -13 42 -20 67 -22 11 -33 -167 -34 -142 0 -178 3 -257 24 -51
13 -93 27 -93 31 0 4 -22 36 -49 72 -61 81 -89 94 -200 91 -164 -4 -236 -44
-297 -166 -20 -38 -33 -71 -31 -73 2 -2 46 16 98 40 105 49 166 66 233 66 l45
0 -6 -52 c-4 -44 -2 -56 14 -70 11 -10 96 -35 203 -60 182 -41 188 -42 370
-42 198 -1 310 15 488 68 133 40 382 142 470 193 198 116 419 355 528 572 43
84 50 147 31 259 -19 111 -5 192 33 192 60 0 211 -75 358 -177 404 -281 704
-596 1118 -1173 331 -460 485 -738 669 -1200 193 -484 285 -853 354 -1420 39
-320 52 -652 34 -900 l-6 -93 -18 34 c-9 19 -37 56 -62 83 -37 39 -47 57 -49
90 -3 34 -11 14 -56 -139 -30 -99 -65 -222 -79 -273 -14 -51 -27 -91 -29 -89
-1 1 6 52 16 112 34 197 72 837 72 1185 -1 496 -27 677 -178 1243 -65 242 -66
247 -147 394 -40 72 -68 113 -78 113 -11 0 -24 21 -39 60 -12 33 -26 60 -30
60 -3 0 -3 -28 2 -62 7 -50 5 -69 -9 -98 -27 -56 -19 -247 23 -528 30 -209 42
-322 27 -257 -3 11 -29 139 -59 285 -74 356 -96 443 -166 660 -67 204 -218
590 -280 715 -72 144 -230 405 -260 430 -22 18 -41 25 -73 25 -100 0 -125 -77
-86 -264 12 -55 20 -100 18 -102 -1 -1 -47 99 -102 224 -108 243 -184 372
-296 497 -61 69 -99 96 -150 108 -24 6 -27 3 -39 -39 -10 -35 -10 -69 -1 -158
17 -173 12 -174 -24 -8 -42 193 -58 239 -95 284 -29 35 -107 80 -161 92 -25 5
-26 2 -71 -137 -25 -78 -62 -212 -82 -297 -79 -339 -74 -319 -75 -273 -1 23
-6 53 -12 67 -31 68 -164 53 -220 -25 -33 -47 -195 -177 -290 -234 -145 -85
-265 -132 -567 -220 -101 -29 -186 -55 -188 -58 -3 -2 0 -25 7 -50 10 -42 13
-46 38 -41 242 43 316 59 417 88 217 62 377 143 569 286 101 75 103 76 108 52
3 -16 -3 -36 -16 -54 -15 -20 -22 -50 -28 -115 -6 -71 -26 -146 -102 -388 -81
-253 -102 -329 -84 -304 25 34 91 109 94 106 2 -3 -19 -65 -47 -139 -27 -74
-50 -138 -50 -142 0 -8 79 0 107 11 20 8 106 183 157 321 97 261 203 615 315
1051 33 128 62 235 65 238 12 12 104 -267 131 -400 22 -109 61 -432 74 -607
15 -198 31 -619 31 -827 l0 -173 54 0 53 0 7 61 c3 34 6 154 6 266 l0 204 49
-7 c60 -8 58 -12 67 186 7 165 -3 322 -47 709 -16 146 -29 278 -27 293 2 24
23 -7 115 -174 61 -112 126 -234 143 -273 137 -305 347 -1124 459 -1790 17
-98 51 -329 51 -342 0 -2 13 -3 28 -3 l29 0 12 -127 c6 -71 11 -147 11 -170
l0 -43 49 31 c74 45 75 51 75 419 1 524 -26 690 -249 1545 -53 204 -98 379
-101 390 -6 20 -6 20 9 0 67 -92 204 -414 300 -710 242 -744 317 -1345 303
-2421 l-7 -501 32 -13 c31 -13 31 -14 25 -64 -3 -28 -9 -84 -13 -123 l-6 -73
56 0 c66 0 57 -16 86 170 47 296 74 568 92 905 14 263 6 906 -15 1165 -8 96
-13 176 -12 177 1 1 23 -62 50 -141 144 -430 151 -986 25 -1951 -56 -427 -200
-1065 -258 -1140 -5 -5 -11 -23 -15 -40 -4 -16 -19 -61 -33 -99 -24 -64 -25
-69 -8 -78 14 -9 16 -19 10 -67 -8 -71 -15 -97 -24 -83 -3 5 -141 -174 -306
-398 l-300 -408 -98 -207 c-54 -113 -97 -210 -95 -215 3 -10 424 511 513 635
50 69 84 135 193 365 l21 45 0 -35 c1 -62 24 -201 32 -193 4 4 21 47 38 95 17
48 49 122 72 163 32 60 42 87 43 130 1 52 4 56 48 90 78 61 94 121 48 185 -24
33 -19 78 18 170 14 36 27 67 29 69 1 2 20 -4 43 -13 l40 -16 33 68 c19 37 44
93 57 124 48 117 29 44 -48 -188 -138 -417 -259 -681 -462 -1015 -61 -99 -110
-181 -110 -183 0 -11 84 -56 90 -49 6 7 100 131 153 203 33 46 -55 -114 -142
-255 -258 -419 -518 -716 -1027 -1171 -389 -348 -879 -662 -1368 -879 -143
-63 -357 -147 -362 -142 -2 1 50 25 114 51 275 114 684 325 936 483 470 294
925 694 1263 1110 l78 96 -35 28 c-19 16 -39 29 -45 28 -5 0 -27 -21 -49 -47
-135 -165 -413 -436 -639 -626 -669 -559 -1502 -977 -2497 -1254 -233 -65
-222 -58 -208 -128 l7 -30 -119 -20 -119 -21 -7 44 c-5 33 -11 43 -25 43 -25
0 -480 -88 -486 -94 -5 -4 12 -10 107 -34 l35 -9 -50 -6 c-81 -11 -392 -36
-646 -52 -436 -28 -1105 -15 -1203 24 -13 5 24 13 105 25 218 29 323 36 824
51 270 8 558 22 640 30 534 54 1221 229 1553 396 152 76 317 193 400 283 120
132 149 286 88 469 -15 43 -20 74 -14 78 5 3 71 9 146 12 296 13 685 108 959
233 256 116 551 350 631 501 64 121 89 299 61 435 -18 88 -90 227 -140 274
-25 22 -54 46 -64 52 -11 6 -18 12 -15 14 3 3 79 55 170 117 399 274 593 472
730 746 91 181 130 345 130 533 -2 324 -132 506 -351 490 -33 -2 -59 -2 -59 1
0 3 30 94 65 201 114 340 110 317 109 615 0 231 -3 272 -23 365 -28 132 -65
222 -140 337 -65 100 -92 120 -198 148 -165 43 -371 -8 -534 -132 l-66 -50 -7
176 c-8 220 -22 368 -42 446 -19 77 -71 188 -131 276 -186 278 -503 330 -716
118 -39 -39 -63 -57 -66 -48 -13 41 -80 154 -128 217 -136 179 -354 324 -573
383 -73 20 -109 23 -260 23 -162 0 -189 -3 -360 -37 -102 -21 -194 -42 -205
-47 l-20 -9 20 0 c54 -3 348 -31 351 -34 3 -2 -27 -25 -66 -51 l-70 -46 -78 3
c-92 4 -104 10 -276 129 -71 49 -131 87 -133 84 -7 -7 187 -245 231 -283 l36
-33 -51 -25 c-28 -15 -49 -29 -46 -32 3 -3 50 2 104 10 54 9 124 18 155 21
110 11 190 38 238 81 14 12 51 33 82 46 32 13 58 27 58 30 0 4 -20 4 -45 1
l-45 -5 0 37 0 36 99 0 c311 0 608 -150 771 -390 57 -84 111 -202 152 -332 18
-59 35 -108 38 -107 3 0 39 57 80 126 121 205 181 257 296 258 115 0 265 -98
348 -228 80 -125 121 -326 133 -652 7 -202 -2 -249 -99 -513 -33 -90 -58 -165
-55 -168 9 -9 162 112 194 153 17 21 49 72 73 113 90 156 83 185 77 -310 -5
-484 -10 -543 -87 -968 -67 -369 -136 -610 -251 -886 -230 -546 -626 -1119
-1080 -1561 -184 -180 -316 -284 -564 -450 -437 -291 -646 -399 -1045 -540
-113 -40 -284 -103 -380 -140 -280 -107 -484 -158 -985 -244 -706 -123 -894
-132 -1525 -75 -477 43 -822 107 -1104 204 -171 59 -863 407 -932 469 -29 25
-113 84 -187 130 -285 177 -516 356 -962 746 -82 72 -185 159 -227 194 -43 34
-99 87 -125 118 -27 31 -133 147 -237 257 -219 234 -329 363 -443 522 -157
220 -743 1157 -743 1189 0 19 85 46 165 51 61 4 75 2 110 -18 45 -26 85 -80
85 -113 0 -22 -5 -23 -90 -30 -49 -4 -90 -10 -90 -14 0 -6 19 -17 207 -118 73
-39 116 -69 149 -106 l47 -52 -131 -5 c-72 -3 -134 -8 -137 -12 -7 -7 26 -24
185 -93 192 -83 250 -122 250 -167 0 -15 -9 -18 -44 -18 -44 0 -44 -1 -60 -47
-9 -26 -16 -47 -16 -48 0 -1 35 -12 78 -24 42 -13 99 -30 126 -38 60 -18 127
-62 161 -107 14 -18 25 -36 25 -39 0 -4 -29 -7 -64 -7 -71 0 -76 -5 -76 -69
l0 -38 82 -17 c198 -43 236 -65 259 -149 9 -34 8 -43 -5 -53 -11 -7 -16 -27
-16 -58 l0 -46 58 0 c90 0 121 -14 197 -87 l70 -66 -48 -10 c-41 -8 -50 -14
-67 -48 -11 -21 -20 -44 -20 -52 0 -10 38 -22 128 -41 158 -33 202 -54 241
-115 25 -38 29 -53 24 -87 l-5 -42 113 -26 c136 -32 183 -51 204 -82 24 -37
19 -52 -21 -60 l-35 -6 7 -57 c3 -31 8 -57 9 -59 1 -1 26 3 55 9 122 26 247
-10 341 -98 l51 -48 -78 -36 -79 -37 35 -6 c19 -3 101 -13 181 -21 146 -14
244 -40 269 -70 10 -12 7 -15 -15 -21 -24 -6 -27 -10 -22 -38 3 -17 10 -43 15
-57 10 -24 12 -25 69 -18 108 14 180 10 237 -12 31 -11 58 -24 60 -28 3 -4
-35 -38 -84 -76 -82 -65 -111 -95 -76 -82 8 3 72 18 142 32 138 29 192 26 291
-11 39 -15 58 -34 33 -34 -11 0 -13 -37 -4 -91 l6 -36 67 23 c71 25 131 30
177 14 27 -9 29 -14 29 -63 l0 -52 150 -1 c131 -1 156 -3 199 -22 43 -19 47
-24 35 -38 -13 -16 -51 -125 -45 -131 1 -1 46 13 99 32 121 43 197 56 262 44
64 -12 70 -20 44 -53 l-22 -28 35 -35 c40 -40 45 -39 117 21 68 57 137 67 252
36 22 -6 39 -16 39 -23 0 -7 -18 -57 -39 -112 -22 -55 -38 -101 -36 -103 8 -8
172 130 195 164 37 55 54 62 142 55 42 -3 79 -9 82 -12 4 -3 -27 -69 -69 -146
-41 -78 -75 -145 -75 -149 0 -5 69 62 153 148 145 149 155 157 212 174 51 14
69 15 124 5 36 -7 69 -15 73 -17 5 -3 -21 -62 -57 -130 -37 -69 -65 -130 -63
-135 2 -5 82 61 178 147 96 86 190 163 209 171 28 12 42 13 78 3 24 -7 43 -18
43 -25 0 -13 62 -55 81 -55 5 0 25 18 45 40 43 47 121 87 189 97 l49 6 -17
-26 c-24 -37 -22 -41 23 -71 l41 -27 66 60 c77 70 161 117 223 127 40 7 43 6
36 -12 -21 -50 -16 -59 51 -98 7 -4 33 20 68 63 45 56 69 75 129 105 40 20 85
36 100 36 27 0 27 0 21 -55 -4 -30 -5 -55 -2 -55 21 0 118 54 127 71 37 68
124 133 211 157 l36 10 6 -67 c7 -99 49 -325 57 -309 4 7 15 72 24 143 24 180
39 228 88 281 32 35 128 94 152 94 3 0 3 -13 0 -28 -5 -24 0 -33 30 -56 20
-15 40 -25 45 -22 8 5 93 149 125 213 15 29 79 83 98 83 5 0 8 -8 8 -18 0 -31
29 -61 66 -68 20 -4 40 -2 45 3 4 4 17 42 27 83 11 41 26 91 35 111 15 37 83
119 97 119 5 0 6 -24 3 -54 l-6 -54 39 -11 c67 -19 69 -18 88 63 23 98 75 204
127 261 23 25 45 45 49 45 4 0 13 -21 20 -46 13 -46 14 -46 49 -40 20 3 45 6
55 6 17 0 18 6 13 63 -12 125 19 242 83 318 l29 34 29 -35 c29 -34 29 -34 71
-22 50 15 51 28 16 132 -14 40 -25 81 -25 89 0 9 17 56 37 104 l38 89 53 -57
54 -58 41 23 c23 13 46 26 50 30 4 3 -15 41 -43 83 -87 135 -93 151 -87 237 6
80 41 210 58 210 5 0 12 -7 15 -15 9 -23 68 -55 103 -55 43 0 224 51 214 60
-4 5 -44 16 -88 25 -136 30 -143 38 -180 198 -15 64 -16 84 -6 117 6 22 17 40
23 40 6 0 31 -16 55 -36 l45 -37 41 41 41 41 -56 53 c-62 58 -101 130 -118
218 -13 68 -13 201 0 235 l10 26 36 -27 c51 -39 122 -44 194 -12 l54 24 -54
40 c-30 22 -74 48 -98 59 -82 36 -162 153 -162 237 0 26 9 33 118 87 l117 59
49 -45 c84 -76 227 -132 304 -119 50 8 216 88 200 96 -7 4 -67 13 -133 19
-154 15 -221 34 -262 74 -18 17 -33 36 -33 42 0 6 37 38 83 70 45 33 103 76
130 96 43 34 50 37 80 28 51 -16 176 -13 227 6 49 17 237 122 246 136 7 13
-250 11 -320 -2 -32 -6 -60 -8 -63 -6 -2 3 21 44 52 91 96 148 134 242 150
377 4 42 3 58 -7 62 -7 3 -30 12 -50 21 l-38 16 -16 -37 c-9 -21 -25 -74 -35
-118 -26 -104 -85 -224 -149 -303 -104 -127 -382 -342 -554 -429 -39 -20 -111
-51 -159 -69 -114 -42 -178 -81 -286 -175 -211 -184 -293 -312 -343 -534 -36
-162 -28 -265 48 -593 20 -87 2 -153 -56 -206 -23 -20 -49 -51 -58 -69 -13
-24 -40 -43 -112 -79 -52 -26 -100 -47 -106 -48 -7 0 -15 11 -18 25 -8 31 -26
28 -137 -21 -293 -130 -656 -198 -1179 -219 -382 -16 -1132 60 -1431 146 -180
52 -212 55 -299 34 -51 -12 -97 -16 -162 -13 l-91 4 -179 93 c-99 51 -182 91
-184 88 -2 -2 54 -60 124 -130 153 -151 185 -169 317 -175 l90 -4 -33 -68
c-64 -129 -55 -269 31 -439 23 -47 43 -88 45 -92 2 -4 -34 -20 -80 -35 -68
-22 -102 -27 -188 -28 -58 -1 -112 2 -121 6 -15 6 -14 15 2 110 10 56 18 123
18 148 1 174 -118 404 -295 570 -85 80 -159 130 -270 182 -232 109 -492 118
-759 28 -49 -16 -91 -28 -93 -25 -4 4 -68 423 -72 464 0 7 205 -11 290 -25
170 -29 360 -79 360 -95 0 -5 5 -9 10 -9 6 0 36 -26 66 -57 l55 -58 -6 43 -7
42 84 -31 c208 -78 211 -78 286 -72 l71 6 -51 58 -50 58 -167 55 c-91 30 -179
57 -196 61 -16 4 -40 16 -52 27 -12 11 -61 31 -110 44 -120 31 -112 30 -258
55 l-131 23 4 31 c19 173 54 300 105 387 l26 45 133 -131 c212 -209 424 -378
668 -530 119 -74 157 -87 196 -62 21 15 25 23 22 59 l-3 42 -95 47 c-52 26
-132 75 -177 110 -304 234 -365 284 -426 346 -37 39 -67 74 -67 80 0 22 100
134 182 203 l46 39 57 -107 c109 -207 316 -492 475 -653 185 -187 435 -317
724 -375 195 -39 317 -50 551 -50 242 1 305 7 600 65 110 21 263 48 340 59
205 31 318 71 460 164 l70 46 24 -47 c13 -26 24 -48 25 -49 3 -4 91 20 100 27
4 5 1 30 -7 57 -8 26 -17 60 -20 75 -5 35 10 134 26 164 l13 24 71 -49 c40
-27 76 -52 82 -55 5 -4 23 13 40 37 l30 44 -158 141 c-270 240 -336 354 -466
807 -45 160 -46 160 -57 399 -9 185 -9 268 1 370 24 259 91 544 186 800 36 95
65 181 65 192 0 25 14 46 28 42 11 -3 182 207 182 223 0 12 -89 81 -98 75 -21
-13 -163 -229 -159 -241 3 -7 -3 -21 -14 -31 -18 -17 -19 -16 -19 27 0 72 27
178 64 249 19 37 96 154 171 259 76 105 135 194 133 197 -7 6 -331 -288 -381
-346 -48 -57 -74 -112 -92 -196 -17 -80 -20 -303 -5 -348 9 -27 2 -59 -59
-241 l-69 -210 -52 -8 c-64 -9 -108 2 -179 45 -55 33 -75 58 -47 58 16 0 34
79 22 98 -11 18 -80 20 -135 5 -118 -33 -254 4 -322 87 l-30 35 24 3 c22 3 25
9 31 64 3 34 5 62 4 64 -2 1 -30 -3 -62 -8 -68 -12 -164 0 -250 32 -54 21
-142 93 -131 109 2 5 21 12 40 15 l35 7 0 56 0 56 -125 -7 c-112 -6 -130 -5
-170 13 -50 22 -140 103 -168 150 l-18 31 39 0 c38 0 41 2 55 43 l14 43 -35
23 c-19 13 -62 27 -97 32 -286 40 -528 276 -1018 992 -243 355 -406 640 -537
937 -21 47 -87 186 -147 310 -61 124 -116 241 -123 260 -53 143 -178 354 -291
495 -84 104 -343 363 -444 444 -274 220 -565 351 -890 402 -113 18 -378 15
-500 -5 -192 -32 -452 -114 -602 -189 -95 -48 -228 -145 -307 -223 l-78 -78
61 84 c111 155 231 414 231 500 0 49 33 78 158 137 220 105 670 173 1006 152
292 -18 591 -92 896 -221 158 -67 401 -195 475 -251 156 -117 328 -320 491
-582 267 -427 373 -572 564 -768 160 -165 436 -421 499 -464 58 -39 379 -187
516 -238 148 -55 266 -82 396 -90 105 -7 121 -5 163 14 36 16 46 25 42 38 -3
10 -8 30 -12 46 -4 19 -13 27 -28 27 -17 1 -14 5 17 24 21 13 48 33 61 45 26
25 38 26 118 16 53 -7 58 -6 83 19 47 47 19 102 -72 142 -79 35 -163 54 -244
54 -63 0 -96 -8 -218 -50 -80 -28 -146 -50 -148 -50 -2 0 -3 12 -3 28 0 40
-10 50 -81 86 -35 18 -116 60 -180 93 -139 72 -189 83 -385 83 l-140 0 -54 55
-54 55 64 0 c36 0 75 -6 86 -13 12 -6 46 -27 75 -44 30 -18 67 -33 83 -33 29
0 116 44 116 59 0 4 -17 17 -37 29 -53 29 -102 84 -166 184 -77 120 -162 186
-289 223 -39 11 -66 26 -83 47 -31 37 -27 45 14 23 28 -14 34 -14 60 0 42 21
44 29 25 88 -13 41 -36 71 -109 147 -51 52 -97 105 -104 116 -8 16 -5 107 9
350 35 572 44 647 110 924 46 194 83 402 112 640 7 58 13 201 12 320 0 176 -4
239 -23 345 -65 380 -168 673 -294 840 -69 92 -242 254 -340 319 -103 69 -210
117 -324 147 -46 12 -83 25 -82 28 1 6 159 147 189 168 10 7 37 14 61 16 28 3
62 16 93 37 l48 33 -53 33 c-30 19 -58 34 -64 34 -5 0 -48 19 -94 42 -80 41
-87 43 -192 46 -60 3 -109 8 -109 12 0 4 -3 22 -6 39 -4 17 -2 31 3 31 5 0 63
-7 129 -15z m2196 -159 c-41 -47 -56 -97 -48 -159 l7 -50 -23 15 c-13 8 -42
42 -65 74 l-41 59 96 47 c53 25 99 47 101 47 1 1 -10 -14 -27 -33z m-2292
-193 c11 -11 -162 -161 -215 -187 -72 -35 -170 -56 -265 -55 -74 0 -75 0 -45
16 17 8 42 27 57 41 l27 25 52 -22 c29 -12 56 -18 61 -13 5 5 11 33 14 63 9
82 6 80 62 62 59 -19 101 -8 123 33 18 35 58 55 94 48 17 -4 32 -9 35 -11z
m6920 -58 c104 -44 205 -94 189 -95 -8 0 -40 5 -70 10 -31 6 -111 14 -178 18
l-123 7 42 48 c47 53 43 52 140 12z m-7527 5 l58 -12 -24 -22 c-19 -18 -25
-36 -30 -91 -6 -67 -8 -71 -52 -108 -25 -21 -45 -42 -45 -46 0 -14 136 -44
230 -51 l95 -7 -73 -1 c-45 -1 -85 -8 -105 -18 -40 -21 -137 -96 -137 -106 0
-5 75 -8 168 -8 182 0 259 -13 340 -54 l47 -25 -60 -1 c-33 0 -82 -9 -110 -19
-27 -11 -86 -32 -130 -49 -231 -85 -404 -218 -471 -361 -19 -41 -32 -76 -29
-79 3 -3 81 12 175 32 93 21 175 36 182 34 7 -3 -32 -22 -87 -43 -136 -52
-202 -85 -327 -167 -129 -84 -148 -113 -148 -225 l0 -70 -45 -36 c-43 -33 -96
-92 -116 -129 -35 -65 -27 -185 16 -250 33 -49 14 -50 -49 -2 -45 34 -48 35
-62 17 -8 -10 -23 -34 -32 -53 l-16 -35 -4 29 c-3 21 11 58 45 125 27 53 141
275 252 494 l202 398 -3 85 -3 84 28 0 c40 0 86 27 97 56 16 41 11 135 -9 179
-17 37 -58 81 -98 103 -13 8 -4 26 54 113 102 152 190 294 198 318 3 12 9 19
13 17 4 -2 33 -9 65 -16z m8291 -145 c74 -55 372 -308 416 -352 14 -14 -20 5
-75 40 -128 84 -388 216 -486 248 l-75 24 28 23 c17 15 33 42 39 68 l12 45 35
-21 c19 -12 67 -45 106 -75z m-8583 -2 c-11 -16 -53 -68 -93 -118 -87 -106
-132 -136 -294 -195 -63 -23 -114 -46 -114 -50 0 -4 23 -16 52 -27 l52 -20
-90 -6 c-78 -5 -113 -13 -219 -51 -11 -4 18 12 65 36 192 99 320 206 379 317
l31 59 118 40 c64 22 121 41 125 41 5 1 -1 -11 -12 -26z m7259 1 c-292 -97
-511 -302 -600 -560 -83 -241 -64 -595 47 -844 l24 -55 -33 -28 -32 -27 -15
27 c-48 93 -53 127 -60 415 -4 152 -10 280 -14 284 -3 4 -40 -5 -81 -20 -41
-14 -80 -26 -86 -26 -32 0 34 168 104 265 20 27 92 106 161 176 108 109 125
130 125 158 0 43 -14 68 -51 86 l-30 16 25 20 c94 74 327 137 511 137 l80 1
-75 -25z m-7621 -20 c37 -8 38 -20 6 -83 -35 -70 -108 -139 -190 -178 l-70
-33 -8 27 c-9 35 0 96 23 148 39 90 138 139 239 119z m-288 -33 c-45 -62 -61
-113 -61 -193 0 -66 -3 -79 -19 -88 -26 -13 -26 -14 -28 16 0 14 -16 41 -33
59 l-33 34 37 50 c33 45 140 151 152 151 3 0 -4 -13 -15 -29z m1629 -11 c41
-12 125 -45 186 -75 140 -68 366 -231 242 -175 -52 24 -157 26 -216 6 l-40
-14 -11 44 c-22 85 -127 171 -245 201 -44 10 -63 19 -54 24 21 14 58 10 138
-11z m6940 -46 c325 -47 658 -178 967 -380 155 -101 230 -156 495 -368 201
-160 229 -186 238 -219 9 -31 70 -100 292 -330 155 -161 319 -335 366 -387
100 -112 247 -307 359 -475 125 -189 124 -191 -8 -20 -217 282 -470 566 -735
825 -199 195 -277 260 -604 505 -124 92 -229 171 -233 175 -5 4 19 22 52 40
34 18 61 36 61 40 0 3 -94 19 -210 35 l-209 28 56 61 57 61 -85 2 c-115 4
-313 21 -337 30 -19 7 -15 14 39 77 32 38 57 71 55 73 -2 2 -76 -8 -165 -22
-88 -15 -174 -25 -190 -23 l-30 3 45 74 c25 40 43 75 41 78 -3 2 -51 -15 -108
-38 -91 -37 -116 -43 -201 -47 -54 -3 -98 -2 -98 1 0 4 9 29 20 57 11 28 20
55 20 60 0 5 -68 -23 -152 -62 -84 -38 -163 -71 -177 -71 -22 -2 -28 5 -44 51
-11 28 -23 52 -27 52 -4 0 -27 -26 -51 -57 -79 -107 -171 -213 -179 -208 -4 3
-18 34 -31 70 -12 36 -26 65 -30 65 -13 0 -56 -162 -68 -254 -6 -49 -13 -91
-16 -94 -3 -3 -14 3 -26 14 -16 14 -35 19 -75 18 -79 0 -82 -8 -35 -103 35
-68 51 -121 38 -121 -2 0 -41 11 -87 25 -46 14 -86 23 -89 20 -2 -3 9 -20 25
-38 144 -156 234 -267 234 -291 0 -7 -42 -19 -102 -30 -57 -10 -112 -22 -123
-26 -14 -5 33 -24 165 -69 102 -34 191 -65 198 -69 9 -6 6 -14 -13 -32 -24
-22 -62 -116 -52 -126 3 -3 38 3 79 14 72 20 144 28 225 24 l42 -2 -15 -35
c-15 -37 -20 -155 -6 -155 20 0 101 73 112 101 20 46 75 84 151 102 25 6 26 4
44 -68 11 -41 23 -75 27 -75 4 0 34 53 67 118 61 123 73 138 106 144 17 3 26
-13 61 -117 23 -66 44 -113 47 -105 10 26 27 206 27 277 0 101 10 105 56 22
l39 -72 3 99 c2 54 -2 126 -8 160 -18 105 -14 134 22 171 l33 34 -21 57 c-12
31 -29 74 -38 95 -9 22 -12 36 -6 32 12 -7 70 41 70 58 0 5 -9 22 -21 39 -12
16 -19 32 -15 35 8 8 129 -34 198 -68 l56 -28 7 -77 c13 -134 0 -308 -29 -407
-69 -233 -192 -391 -461 -592 l-151 -113 -164 39 c-91 21 -196 46 -234 55 -86
20 -240 84 -331 137 -40 23 -105 76 -150 121 -90 91 -135 166 -187 317 -32 92
-33 98 -32 259 0 153 2 171 27 248 79 236 160 352 313 448 222 138 476 178
824 128z m-5444 -165 c63 -39 103 -126 104 -227 l0 -43 -30 18 c-47 27 -72 73
-157 281 -6 15 35 1 83 -29z m7042 -388 c162 -201 362 -403 427 -431 26 -11
51 -18 55 -15 5 3 11 22 15 43 11 67 20 71 60 32 49 -47 67 -79 217 -388 71
-146 140 -281 154 -299 20 -27 107 -83 128 -83 10 0 56 91 56 112 l0 23 21
-25 c43 -54 122 -235 185 -425 36 -110 75 -216 87 -235 36 -63 68 -90 103 -90
49 0 63 9 85 52 11 21 24 36 29 33 15 -10 48 -125 124 -435 41 -168 77 -321
81 -340 5 -23 -53 62 -172 255 -99 160 -252 408 -342 553 -224 362 -277 444
-368 558 -43 54 -112 146 -152 203 -104 146 -201 259 -327 381 -92 89 -623
544 -804 690 -30 24 -59 47 -64 51 -5 4 10 5 33 2 49 -7 76 12 87 60 l7 32 74
-80 c41 -43 132 -149 201 -234z m-9611 252 c26 -17 37 -46 34 -87 -2 -42 -11
-50 -28 -27 -18 27 -61 49 -148 77 -75 24 -74 25 12 49 52 15 95 11 130 -12z
m7840 11 c49 -11 101 -15 186 -12 86 3 117 1 117 -8 0 -6 7 -17 15 -24 22 -18
18 -28 -11 -32 l-26 -3 32 -44 c30 -40 32 -49 26 -96 -6 -56 11 -141 43 -202
18 -36 18 -36 -5 -77 -13 -23 -24 -56 -24 -75 0 -20 -13 -56 -35 -91 -31 -50
-35 -66 -35 -124 l0 -66 -30 0 c-49 0 -126 -45 -151 -88 -19 -32 -27 -37 -49
-34 -36 5 -129 -14 -172 -37 -31 -15 -37 -16 -58 -2 -14 9 -55 17 -111 19 -49
3 -86 8 -84 12 9 14 -114 109 -156 122 -36 10 -40 14 -38 42 4 63 -2 85 -34
134 -31 46 -34 57 -41 156 -6 102 -6 106 14 106 32 0 71 69 83 149 l11 69 36
6 c37 6 103 66 171 155 23 29 29 32 47 22 33 -17 92 -12 152 13 30 13 56 24
57 25 1 0 32 -6 70 -15z m-7927 -189 c10 -12 5 -18 -31 -34 -164 -71 -263
-124 -304 -162 -26 -24 -110 -135 -187 -248 -189 -276 -262 -372 -351 -459
l-74 -73 -38 42 -38 43 39 33 c21 18 42 33 46 33 4 0 26 28 49 63 23 34 76 98
118 142 42 44 91 99 109 122 l32 41 -28 10 c-51 18 -92 61 -92 97 0 62 21 61
85 -6 l59 -61 28 33 c30 36 37 79 14 79 -18 0 -60 66 -51 80 3 5 20 10 36 10
23 0 34 -7 50 -35 12 -19 25 -35 29 -35 12 0 60 60 60 75 0 7 -14 25 -32 40
l-32 27 33 30 c26 23 35 27 47 17 8 -6 14 -20 14 -30 0 -10 4 -21 10 -24 15
-10 65 21 93 59 l27 34 -32 21 -32 20 27 10 c46 18 66 14 73 -15 8 -30 21 -28
114 11 65 27 113 31 130 10z m1892 -47 c31 -62 90 -229 83 -237 -2 -2 -17 6
-33 18 -16 11 -50 30 -76 41 -25 10 -46 23 -46 27 0 4 7 30 15 57 8 27 15 73
15 103 0 29 2 53 5 53 3 0 19 -28 37 -62z m7050 -269 c-4 -51 -34 -121 -87
-199 l-36 -55 5 49 c3 27 6 90 6 141 l0 93 48 10 c26 5 52 9 57 7 6 -1 9 -22
7 -46z m-6057 -100 c19 -36 19 -81 0 -143 -8 -27 -15 -63 -15 -79 l0 -30 -25
23 c-46 43 -62 96 -69 224 l-6 118 50 -42 c28 -24 57 -55 65 -71z m-3995 16
c0 -28 -70 -93 -117 -109 -58 -20 -113 -21 -113 -2 0 25 46 81 85 103 49 28
145 33 145 8z m10759 -314 c83 -73 151 -135 151 -137 0 -7 -340 87 -388 107
l-53 22 63 27 63 27 -1 47 c0 25 3 45 7 44 4 -2 75 -63 158 -137z m-10791 -60
c35 -62 62 -115 59 -118 -3 -3 -21 0 -39 6 -39 13 -113 86 -152 148 l-26 43
38 19 c20 11 41 19 47 17 5 -1 38 -53 73 -115z m6612 54 c-9 -39 -55 -103
-151 -210 l-62 -70 6 49 c8 57 40 132 70 165 18 19 133 101 142 101 2 0 -1
-16 -5 -35z m-7047 -198 c79 -76 122 -91 240 -84 55 3 116 13 151 26 33 12 70
21 84 21 26 0 92 -36 92 -50 0 -13 -115 -75 -195 -105 -115 -44 -232 -67 -330
-67 -49 0 -101 4 -114 9 -21 8 -17 11 31 22 37 8 64 21 83 41 l27 28 -48 25
c-89 46 -134 109 -134 188 l0 40 28 -19 c15 -11 53 -45 85 -75z m10410 20
c-56 -99 -128 -153 -263 -201 -141 -50 -150 -51 -96 -16 79 51 141 108 187
170 l42 58 69 0 c49 0 66 -3 61 -11z m-5979 -109 c59 -68 69 -147 33 -268
l-13 -45 -22 45 c-35 75 -68 310 -43 310 5 0 26 -19 45 -42z m7292 -171 c416
-425 740 -854 1048 -1387 185 -320 504 -976 653 -1345 88 -216 84 -210 153
-245 33 -16 62 -30 66 -30 6 0 1 26 -12 67 -3 10 23 -31 59 -92 111 -187 118
-197 122 -193 5 5 -89 389 -109 445 l-15 42 41 -16 42 -17 67 74 c57 62 70 72
83 61 43 -36 60 -158 121 -862 31 -354 65 -743 77 -864 17 -167 22 -300 24
-550 1 -181 -2 -316 -6 -300 -4 17 -8 53 -9 82 -8 381 -272 1132 -640 1824
-55 102 -120 219 -144 260 -25 40 -45 74 -44 75 1 1 35 -1 75 -5 l72 -7 0 68
0 67 -79 118 c-77 115 -152 196 -331 357 -36 33 -56 55 -45 50 11 -5 41 -9 67
-9 63 0 108 40 108 96 0 30 -7 43 -42 76 -24 21 -78 58 -121 81 -92 51 -197
147 -280 257 -33 44 -64 85 -69 92 -5 6 15 2 44 -9 56 -22 167 -27 220 -11
l27 8 -35 60 c-50 84 -186 197 -429 359 -110 74 -214 149 -231 167 -37 40 -82
105 -67 96 24 -15 198 -38 242 -32 38 5 50 12 68 40 l23 34 -67 77 c-79 90
-124 122 -343 239 -225 121 -309 176 -360 237 l-44 51 50 -7 c27 -3 79 -9 115
-12 65 -6 66 -6 88 24 l22 31 -46 70 c-74 112 -126 148 -307 210 -140 48 -288
110 -288 121 0 5 45 16 100 26 l100 19 0 52 c0 29 4 53 9 53 4 0 84 -78 177
-173z m-2826 -27 c94 -48 211 -90 247 -90 29 0 29 -1 -1 -45 -14 -20 -26 -41
-28 -47 -6 -18 -104 7 -180 45 -66 32 -205 164 -274 259 l-34 48 93 -64 c50
-35 130 -83 177 -106z m-2310 138 c0 -42 -40 -104 -120 -183 l-80 -80 0 36 c0
57 27 133 59 163 28 27 118 84 134 85 4 1 7 -9 7 -21z m3300 -147 c-16 -31
-12 -63 15 -109 l24 -42 -32 -17 c-26 -14 -57 -17 -157 -16 -137 1 -228 16
-360 62 l-85 29 51 1 c28 1 93 4 145 7 66 4 90 3 79 -5 -39 -27 9 -14 160 44
91 35 166 64 168 65 1 0 -2 -9 -8 -19z m-6244 -227 c-9 -75 -16 -146 -17 -158
0 -12 -6 -1 -13 24 -16 55 -49 122 -70 139 -24 20 -19 33 19 61 19 14 47 42
62 62 18 24 29 32 31 22 2 -8 -4 -75 -12 -150z m694 122 c28 -59 97 -121 176
-158 62 -29 64 -31 48 -49 -20 -22 -102 -54 -164 -63 -43 -6 -47 -5 -81 31
l-36 38 16 123 c8 67 16 122 17 122 1 0 12 -20 24 -44z m1674 -128 c-15 -51
-47 -97 -120 -173 l-76 -80 6 42 c13 94 71 183 141 214 52 24 58 24 49 -3z
m2906 -162 c1070 -120 1990 -519 2900 -1256 171 -139 504 -477 653 -664 408
-511 718 -1099 947 -1796 134 -405 226 -829 282 -1295 17 -144 17 -692 0 -885
-55 -607 -182 -1123 -402 -1625 -56 -128 -217 -455 -224 -455 -3 0 42 96 99
213 447 917 604 1855 485 2901 -81 708 -296 1396 -621 1990 -57 105 -241 417
-256 435 -12 15 -11 -20 3 -123 l15 -118 118 -237 c265 -529 459 -1105 556
-1646 62 -344 91 -934 64 -1290 -58 -776 -289 -1562 -639 -2170 -88 -152 -250
-445 -250 -450 0 -7 80 -58 84 -54 9 10 175 269 200 312 16 26 30 47 33 47 6
0 -35 -72 -150 -264 -214 -360 -435 -656 -743 -996 -258 -286 -788 -789 -1084
-1030 l-54 -45 24 35 c14 19 119 127 235 240 667 651 986 1036 1294 1557 250
423 470 1013 503 1344 19 196 -18 475 -77 575 -48 82 -148 144 -232 144 l-33
0 36 72 c225 446 328 1260 215 1698 -41 161 -123 333 -207 434 -56 69 -165
143 -249 168 -98 31 -249 31 -317 0 l-48 -21 0 222 c0 316 -32 560 -115 860
-90 330 -273 681 -430 825 -121 110 -298 178 -441 170 -136 -9 -256 -91 -318
-220 l-33 -69 -234 288 c-362 445 -464 542 -683 648 -157 76 -251 100 -401
100 -114 0 -123 -2 -187 -32 -84 -40 -142 -97 -181 -181 -28 -60 -32 -79 -35
-179 l-4 -112 -52 39 c-116 88 -333 177 -525 215 -114 23 -293 17 -370 -13
-110 -43 -172 -107 -214 -220 -17 -47 -21 -80 -21 -187 -1 -152 15 -208 89
-327 24 -40 43 -73 42 -74 -2 -2 -30 4 -62 13 -81 22 -260 22 -342 0 -89 -24
-182 -71 -260 -134 -92 -75 -135 -101 -207 -128 l-62 -23 4 27 c2 16 -3 42
-12 59 -20 38 -71 55 -215 73 -123 15 -207 4 -375 -50 -67 -21 -134 -41 -150
-45 l-29 -7 37 48 c82 108 188 275 250 393 118 227 153 374 143 609 -16 413
-225 721 -618 911 -44 21 -85 40 -91 42 -14 5 21 72 72 137 89 112 315 249
539 326 298 102 962 230 1366 264 172 15 794 6 965 -13z m-4569 -165 c11 -33
6 -163 -8 -219 -7 -29 -14 -19 -44 58 -21 56 -29 184 -13 232 7 22 7 22 30 -7
13 -17 29 -45 35 -64z m1139 -5 c-24 -63 -64 -129 -111 -183 -28 -32 -58 -68
-66 -80 -21 -32 -30 -29 -37 12 -14 71 6 103 117 193 56 45 103 82 104 82 1 0
-2 -11 -7 -24z m-6283 -234 c7 -19 -1 -32 -62 -95 -39 -39 -81 -94 -94 -121
-24 -52 -32 -133 -18 -196 6 -32 4 -37 -29 -59 -59 -40 -84 -86 -84 -153 0
-64 -11 -74 -30 -28 -25 59 36 365 100 506 17 37 67 124 113 194 l82 127 6
-76 c4 -42 11 -86 16 -99z m2064 65 c-6 -8 -34 -26 -61 -41 -40 -22 -72 -30
-148 -37 -128 -11 -192 -11 -192 0 0 16 61 54 115 73 65 23 304 26 286 5z
m-781 -74 c-35 -38 -65 -69 -66 -71 -2 -4 -241 -72 -254 -72 -18 0 27 76 56
95 20 13 295 111 323 114 2 1 -24 -29 -59 -66z m1263 -16 c105 -24 107 -27 40
-61 -42 -21 -93 -19 -228 8 l-110 21 45 28 c57 34 117 35 253 4z m-1999 -58
c-29 -58 -44 -110 -55 -203 -12 -98 -28 -139 -60 -156 -11 -6 -64 -27 -117
-46 -53 -20 -117 -46 -141 -60 l-43 -24 60 64 c33 36 104 122 158 193 129 169
204 263 210 263 2 0 -3 -14 -12 -31z m4501 -186 c29 -43 31 -83 12 -231 l-12
-93 -28 57 c-35 71 -43 136 -27 216 20 105 19 104 55 51z m-1875 -11 c30 -12
73 -38 95 -57 l40 -34 -86 -1 c-85 0 -89 1 -203 56 -64 31 -116 58 -116 61 0
3 48 3 108 1 78 -3 122 -11 162 -26z m11004 -337 c14 -94 41 -543 34 -551 -2
-2 -17 27 -32 64 -16 37 -71 149 -122 250 -51 100 -88 180 -83 176 22 -13 101
69 137 144 35 72 36 74 44 46 4 -16 14 -74 22 -129z m-12299 -60 c108 -17 278
-55 272 -61 -2 -3 -33 2 -68 11 -136 32 -225 14 -307 -59 -21 -20 -43 -36 -47
-36 -4 0 -26 16 -48 36 -54 50 -130 82 -213 92 l-69 8 90 13 c50 7 97 14 105
16 26 7 192 -5 285 -20z m-1380 -62 c-76 -132 -177 -253 -303 -363 -68 -60
-112 -117 -112 -146 0 -2 19 -8 42 -15 37 -10 40 -12 23 -21 -32 -17 -76 -61
-91 -91 -8 -15 -28 -67 -45 -115 -17 -48 -32 -88 -34 -90 -1 -1 -18 5 -38 13
-24 10 -69 15 -133 15 -87 0 -96 2 -89 18 11 30 82 285 96 345 l12 58 24 -63
c13 -35 26 -70 30 -78 3 -9 10 2 17 30 11 43 14 45 51 48 46 3 125 22 125 30
0 3 -14 20 -31 38 -57 59 -23 90 114 105 51 6 99 13 107 15 11 4 -3 21 -45 58
-51 46 -58 56 -47 69 12 14 18 14 57 0 68 -23 84 -16 105 46 23 68 65 110 126
127 27 7 53 13 57 13 5 1 -3 -20 -18 -46z m749 -3 c-79 -39 -135 -95 -177
-179 -30 -60 -36 -66 -58 -60 -37 11 -170 10 -207 0 -46 -14 -34 -2 65 67 106
72 208 124 328 168 112 41 128 42 49 4z m4260 8 c9 -12 16 -36 16 -53 0 -49
-54 -285 -65 -282 -26 8 -46 72 -42 132 5 61 54 225 68 225 4 0 15 -10 23 -22z
m-3131 -93 c88 -43 331 -194 324 -201 -1 -1 -36 5 -77 13 -42 8 -103 12 -137
10 -62 -5 -63 -4 -63 22 -1 68 -64 148 -155 196 -88 46 -4 15 108 -40z m2840
-35 c31 -6 57 -12 57 -13 0 -1 -7 -38 -15 -82 -8 -44 -18 -146 -21 -227 l-7
-147 -29 20 c-54 39 -60 63 -52 237 5 126 3 165 -9 199 -13 39 -13 42 2 34 9
-5 42 -14 74 -21z m-5633 -66 c-14 -88 -35 -119 -150 -224 l-93 -85 75 115
c41 63 97 149 124 191 27 42 50 75 52 74 1 -1 -2 -33 -8 -71z m97 -226 c-8
-118 -46 -269 -94 -370 -28 -62 -46 -85 -77 -106 -34 -23 -42 -34 -44 -64 -2
-22 5 -52 17 -76 l20 -39 -46 -22 c-50 -24 -60 -23 -45 6 20 36 53 185 58 261
4 42 2 101 -4 131 -14 79 -2 110 81 194 40 41 86 97 102 125 17 28 32 52 34
52 2 0 1 -42 -2 -92z m14782 -31 c6 -28 12 -196 13 -373 l3 -321 -56 161 c-31
89 -75 208 -98 266 -22 58 -41 108 -41 112 0 4 9 10 20 13 55 17 111 93 125
168 9 48 21 39 34 -26z m-11434 -122 c159 -157 261 -300 349 -488 74 -158 73
-153 19 -116 -25 18 -67 40 -92 50 l-46 17 0 93 c0 84 -3 101 -31 160 -53 111
-185 218 -292 235 -39 6 -42 9 -42 38 0 41 -27 145 -43 165 -23 30 97 -74 178
-154z m1050 74 c78 -38 181 -106 172 -115 -2 -2 -48 0 -102 6 -80 8 -104 15
-123 33 -26 23 -82 105 -82 119 0 14 51 -2 135 -43z m-4691 -146 c18 -111 2
-262 -39 -359 l-15 -35 -29 17 c-43 26 -66 85 -65 169 0 40 8 86 17 107 15 36
102 138 117 138 4 0 10 -17 14 -37z m1225 -12 c-13 -10 -102 -58 -198 -106
-209 -104 -291 -155 -331 -203 -30 -36 -30 -36 -30 -11 0 25 -43 100 -61 107
-11 4 110 118 164 155 75 51 137 61 446 75 l34 2 -24 -19z m-749 -296 c15 -8
38 -31 51 -52 27 -46 57 -72 83 -73 14 0 17 -5 11 -22 -3 -13 -9 -58 -12 -101
-5 -67 -2 -90 22 -163 15 -46 31 -86 35 -89 4 -3 26 26 48 63 48 79 93 125
145 147 38 16 38 16 26 -6 -6 -12 -32 -53 -57 -92 -57 -89 -82 -168 -82 -260
0 -68 2 -75 41 -130 22 -31 43 -57 45 -57 3 0 25 42 50 94 42 89 49 97 127
157 67 52 79 58 63 34 -41 -66 -111 -160 -172 -233 -102 -122 -120 -183 -89
-298 21 -80 62 -127 123 -143 51 -14 48 -24 -13 -41 -25 -7 -45 -17 -45 -22 0
-43 83 -138 121 -138 30 0 22 -20 -8 -22 -53 -2 -88 4 -125 23 -42 21 -42 21
-77 214 -46 252 -212 976 -233 1021 -24 49 -32 51 -101 25 -23 -9 -26 -15 -21
-37 6 -24 2 -22 -38 19 -25 24 -62 50 -84 57 -21 7 -44 19 -51 27 -7 9 -17 12
-24 7 -7 -4 -31 -11 -53 -15 l-40 -7 34 29 c73 60 114 84 159 90 78 11 111 10
141 -6z m4605 -87 c70 -27 152 -74 204 -116 38 -31 41 -36 26 -45 -26 -14
-147 -1 -197 21 -28 12 -65 43 -103 88 -100 116 -96 106 -34 88 30 -9 76 -25
104 -36z m-4721 -211 c15 -19 26 -37 26 -40 0 -4 -20 -37 -44 -74 -120 -188
-142 -337 -89 -622 35 -189 36 -341 4 -491 -30 -145 -66 -218 -143 -292 -154
-147 -360 -248 -507 -248 -51 0 -121 21 -121 37 0 5 24 14 53 21 56 13 146 69
170 106 15 22 14 23 -43 49 -52 24 -130 94 -130 116 0 6 26 -2 58 -17 74 -34
219 -43 303 -18 111 32 197 113 240 224 30 80 37 298 15 530 -9 95 -16 195
-16 222 l0 50 -57 28 -58 29 3 43 c2 25 4 46 6 48 2 2 26 -8 54 -22 l50 -25
10 39 c9 38 9 40 -22 60 -18 10 -40 27 -49 37 -15 17 -14 21 5 51 l20 32 42
-30 41 -31 16 38 16 38 -44 25 c-39 21 -43 27 -38 50 10 40 17 41 70 8 l49
-31 33 39 c18 22 33 42 33 47 0 17 21 5 44 -26z m3106 -423 c104 -46 187 -156
208 -272 16 -92 17 -92 -112 -92 -113 0 -156 12 -156 43 0 7 -15 44 -34 83
-40 83 -114 155 -187 181 -27 10 -49 21 -49 25 0 12 46 39 92 54 61 20 167 10
238 -22z m-646 -104 c67 -26 155 -117 144 -151 -2 -5 -53 -41 -113 -79 l-110
-70 -20 28 c-65 89 -103 105 -260 112 l-129 5 54 55 c84 85 168 118 302 119
55 1 93 -5 132 -19z m-3050 -210 c-17 -73 -47 -134 -81 -166 -34 -32 -41 -30
-59 11 -21 50 -17 79 13 115 24 29 119 100 134 100 4 0 1 -27 -7 -60z m4736
-135 c309 -568 640 -1032 1030 -1449 68 -73 151 -128 235 -156 78 -26 109 -54
43 -38 -24 5 -98 8 -164 5 l-121 -5 -5 62 c-8 90 -40 157 -109 221 -79 72
-165 119 -281 151 l-95 27 13 56 c18 74 17 134 -1 178 -19 44 -143 218 -181
255 -39 36 -102 67 -155 76 -39 7 -44 10 -41 32 2 14 5 68 5 121 2 91 1 98
-36 171 -44 90 -110 155 -198 196 -59 27 -59 27 -51 62 4 19 7 79 7 132 0 53
3 91 6 85 4 -7 48 -88 99 -182z m-1248 -35 c110 -417 191 -696 218 -749 35
-71 113 -175 149 -201 24 -16 156 -70 174 -70 13 0 -60 140 -105 200 -55 74
-127 215 -158 309 -19 57 -130 520 -130 541 0 12 83 30 137 30 43 0 181 -24
189 -33 2 -2 0 -43 -5 -92 -10 -101 1 -214 49 -480 60 -331 126 -547 244 -790
247 -511 600 -878 1129 -1174 130 -73 402 -210 675 -339 148 -71 153 -74 148
-100 -3 -15 -8 -66 -12 -114 -9 -117 11 -159 100 -217 34 -23 67 -41 73 -41 6
0 1 38 -13 98 -24 96 -30 191 -17 265 l6 39 24 -49 c45 -89 124 -184 188 -224
l60 -39 6 28 c15 64 10 92 -29 145 -63 86 -109 168 -197 351 -142 293 -170
407 -162 656 2 85 8 163 12 172 6 16 10 15 43 -7 20 -14 76 -39 125 -56 80
-29 92 -37 140 -92 81 -94 153 -142 269 -179 97 -30 100 -32 132 -82 39 -61
109 -127 165 -155 60 -31 151 -52 193 -46 34 6 41 3 101 -53 71 -66 116 -92
192 -111 28 -7 56 -15 64 -17 8 -3 -28 -36 -85 -80 -164 -125 -256 -229 -327
-369 -26 -52 -192 -453 -241 -583 -51 -133 -107 -174 -246 -178 -80 -2 -81 -2
-20 4 66 7 130 40 130 68 0 6 -17 26 -37 44 -36 32 -38 32 -97 24 -88 -12
-164 -10 -221 6 -118 32 -534 231 -786 375 -431 248 -809 548 -1109 879 -126
140 -169 198 -266 358 -72 118 -105 152 -167 169 -57 15 -91 41 -112 86 -16
34 -17 49 -5 186 6 82 9 151 6 155 -12 11 -108 -93 -132 -143 -18 -38 -24 -67
-24 -122 0 -85 9 -112 55 -166 19 -22 35 -48 35 -57 0 -9 -11 -43 -24 -76 -39
-97 -42 -175 -11 -320 l7 -32 -48 5 c-68 8 -127 31 -267 109 -67 36 -123 68
-125 69 -2 2 15 31 37 65 48 73 95 191 110 274 14 75 14 231 0 316 -16 100
-71 252 -125 341 -127 212 -445 469 -791 641 l-143 71 0 46 c0 141 84 451 123
451 29 0 180 -86 253 -143 107 -85 173 -166 319 -387 153 -231 224 -322 319
-403 l76 -64 87 -6 c48 -4 89 -4 91 -2 11 11 -96 127 -146 158 -31 20 -73 53
-93 74 -20 21 -135 178 -256 348 -218 307 -280 380 -361 426 -23 13 -42 27
-42 31 0 17 121 111 184 142 76 37 199 76 230 73 16 -2 27 -31 68 -187z
m-2637 21 c6 -27 -7 -71 -21 -71 -7 0 -146 30 -162 35 -23 8 17 54 57 65 87
24 116 17 126 -29z m-521 -61 c5 -5 7 -13 3 -16 -6 -7 -185 11 -233 22 l-22 6
25 43 24 44 97 -45 c53 -25 101 -49 106 -54z m-207 -122 c57 -24 103 -46 103
-50 0 -3 -16 -12 -36 -18 -46 -16 -156 -8 -207 13 l-38 17 32 40 c18 22 35 40
38 40 3 0 52 -19 108 -42z m2437 -12 l34 -14 -19 -84 c-10 -45 -21 -97 -25
-115 -6 -30 -9 -32 -63 -38 -143 -16 -190 -34 -249 -99 -18 -20 -46 -43 -62
-51 -30 -15 -30 -15 -41 12 -20 53 37 206 107 283 86 94 230 143 318 106z
m-2397 -992 c21 -28 16 -60 -22 -144 -19 -43 -35 -84 -35 -92 0 -21 38 -68 55
-68 17 0 45 -38 45 -60 0 -9 -25 -51 -56 -94 -62 -85 -61 -96 7 -96 42 0 58
-16 82 -79 l16 -43 -39 -66 c-22 -36 -40 -68 -40 -72 0 -3 25 -18 56 -33 42
-21 59 -36 70 -63 21 -50 10 -86 -45 -149 -41 -47 -71 -107 -71 -142 0 -10 88
-49 94 -42 1 2 13 20 27 39 l24 35 12 -55 c14 -62 5 -112 -26 -151 -22 -30
-95 -198 -88 -205 3 -3 34 13 70 35 l64 41 36 -34 37 -34 -6 -94 c-6 -108 1
-128 41 -110 39 18 45 16 66 -33 34 -76 29 -108 -35 -249 -32 -70 -56 -129
-54 -131 4 -5 146 91 178 120 15 13 19 13 38 -8 34 -36 42 -72 42 -188 l0
-109 43 0 c70 0 88 8 81 37 -7 25 -6 25 23 9 49 -25 80 -70 88 -125 5 -35 19
-67 46 -106 22 -30 44 -55 48 -55 7 0 42 72 55 113 6 19 28 22 56 7 23 -12 86
-103 124 -177 14 -29 28 -53 29 -53 2 0 24 7 50 16 52 18 53 21 33 88 l-15 48
27 -7 c38 -9 90 -51 121 -98 55 -83 74 -97 134 -97 89 0 91 3 51 70 -19 32
-34 61 -34 64 0 3 20 6 45 6 48 0 88 -16 142 -57 29 -21 173 -68 173 -56 0 23
-37 123 -52 143 l-20 25 43 19 c23 10 76 20 118 23 67 5 85 2 141 -20 75 -31
80 -28 80 54 0 39 -5 61 -15 69 -14 11 -14 15 2 32 29 32 47 38 170 53 65 8
143 22 173 30 30 8 58 15 63 15 13 0 -30 -74 -91 -156 -114 -152 -195 -214
-408 -315 -297 -140 -536 -170 -855 -105 -289 59 -508 165 -670 328 -93 93
-235 249 -280 308 -55 73 -234 443 -268 555 -121 399 -250 1244 -251 1637 l0
67 73 4 c120 7 169 2 184 -19z m1581 -209 c-88 -82 -194 -130 -347 -155 -68
-11 -126 -18 -128 -16 -21 21 108 125 185 150 26 8 101 24 167 35 66 11 131
24 145 30 14 5 27 10 30 10 3 0 -21 -24 -52 -54z m-808 -250 c-13 -65 -58
-127 -185 -260 l-86 -90 5 58 c8 92 50 168 149 269 48 48 94 100 104 115 l18
27 3 -32 c2 -18 -2 -57 -8 -87z m1422 52 c32 -14 79 -40 105 -58 26 -18 72
-43 102 -55 l54 -22 -67 -7 c-109 -12 -150 -3 -311 70 -182 81 -169 74 -153
92 21 26 198 13 270 -20z m-485 -92 c50 -8 128 -26 172 -40 130 -41 399 -185
519 -278 206 -158 362 -517 362 -832 0 -157 -35 -307 -122 -517 -46 -112 -37
-108 -168 -78 -47 11 -98 20 -114 20 -26 0 -28 2 -21 28 13 55 67 94 155 113
l52 11 -7 52 c-4 28 -9 53 -11 55 -2 2 -32 -1 -66 -6 -35 -6 -65 -9 -67 -7 -2
2 -1 14 3 27 3 15 34 45 77 77 l72 52 -40 36 c-87 80 -92 144 -23 282 23 45
40 84 38 85 -2 2 -28 -2 -58 -9 -96 -23 -116 -1 -108 119 3 46 10 73 26 94 12
17 22 42 22 55 0 29 -29 106 -39 106 -10 0 -108 -103 -113 -119 -3 -11 -9 -9
-25 8 -21 22 -22 31 -39 234 -4 42 -10 77 -14 77 -4 0 -12 -11 -18 -24 -6 -14
-23 -43 -37 -65 -24 -38 -26 -40 -52 -29 -77 33 -101 86 -80 176 l14 60 -30 6
c-75 15 -81 11 -106 -59 -26 -74 -43 -84 -96 -59 -44 21 -83 76 -92 128 l-6
38 -51 -7 c-28 -3 -55 -10 -59 -14 -7 -7 -2 -37 18 -128 l5 -23 -52 21 c-29
11 -75 38 -103 58 -86 65 -217 152 -222 147 -3 -2 23 -50 56 -107 33 -56 58
-105 56 -109 -8 -13 -82 -18 -131 -9 -27 5 -87 27 -132 49 -46 22 -87 40 -92
40 -9 0 -60 -73 -60 -86 0 -6 25 -28 56 -49 l56 -39 -49 -19 c-51 -21 -118
-25 -235 -12 -76 8 -77 8 -49 -58 20 -46 42 -60 114 -72 35 -6 37 -8 37 -41 0
-56 -27 -102 -79 -132 -41 -24 -56 -27 -138 -27 l-91 1 -4 -56 c-2 -30 1 -58
7 -62 5 -4 34 -8 64 -8 l54 0 -6 -36 c-8 -49 -20 -60 -101 -101 -39 -20 -84
-46 -99 -59 -16 -13 -33 -24 -38 -24 -5 0 -9 24 -9 53 -1 28 -8 70 -16 92 -21
54 -19 78 17 165 129 309 287 532 472 664 117 84 306 160 442 179 76 10 317 6
402 -8z m940 -340 c69 -29 100 -61 143 -151 28 -59 60 -106 99 -146 53 -54 56
-59 35 -64 -12 -3 -41 -2 -65 3 -44 9 -44 9 -108 128 -34 66 -83 148 -107 183
-24 34 -41 62 -38 62 2 0 21 -7 41 -15z m-1071 -105 c24 0 55 7 68 15 21 14
28 13 80 -11 55 -25 78 -27 148 -12 10 2 25 -11 40 -32 25 -38 128 -99 166
-100 19 0 22 -5 22 -35 0 -71 54 -147 116 -164 28 -7 29 -10 34 -82 6 -84 15
-105 65 -146 33 -27 34 -31 25 -63 -17 -59 -12 -131 14 -186 l23 -50 -33 -32
c-40 -38 -58 -99 -50 -166 4 -40 2 -53 -18 -80 -30 -40 -46 -89 -46 -137 0
-33 -3 -39 -20 -39 -56 0 -134 -60 -170 -131 -19 -36 -20 -36 -97 -42 -135
-10 -209 -43 -248 -110 -9 -15 -14 -16 -50 -2 -53 19 -129 19 -194 -1 -52 -15
-53 -15 -87 11 -70 54 -177 85 -226 66 -22 -8 -30 -5 -64 30 -39 40 -62 50
-156 69 -49 10 -59 16 -82 51 -33 49 -105 96 -160 104 l-41 7 -1 52 c0 33 -9
70 -22 96 l-21 43 34 48 c67 91 84 200 45 301 l-19 51 23 22 c38 35 58 84 64
150 4 60 5 62 40 75 20 7 56 33 82 59 51 51 70 102 70 190 0 48 1 50 38 62 75
24 129 57 141 87 l12 29 81 -5 c92 -5 178 11 203 38 16 18 18 18 71 -6 31 -14
74 -24 100 -24z m2023 -388 c55 -13 79 -24 93 -42 18 -25 18 -27 -1 -82 -25
-72 -53 -110 -102 -137 -81 -46 -249 -35 -334 21 -25 16 -45 33 -45 36 0 4 46
34 102 67 82 49 107 69 131 108 35 54 41 56 156 29z m8006 -229 c65 -69 95
-152 135 -377 11 -60 20 -114 20 -120 0 -15 -209 300 -226 340 -22 52 -18 140
6 164 26 26 34 25 65 -7z m-8661 -108 c33 -67 49 -147 40 -200 -4 -22 -17 -82
-30 -134 -13 -51 -24 -108 -24 -125 0 -58 -15 -61 -39 -6 -36 84 -37 203 -5
488 8 63 18 59 58 -23z m-2358 -71 c9 -50 -1 -108 -26 -149 -25 -40 -40 -38
-40 6 0 16 -9 56 -21 90 -12 33 -19 62 -18 63 6 4 73 24 86 25 7 1 15 -15 19
-35z m11022 -493 c49 -90 65 -170 65 -309 0 -67 -3 -125 -5 -128 -3 -3 -19 7
-34 22 -16 14 -53 44 -82 66 l-53 39 6 177 c3 97 8 192 11 211 l5 33 29 -27
c16 -15 42 -53 58 -84z m-8892 -147 c17 -89 -12 -165 -132 -345 -35 -53 -68
-107 -74 -120 -8 -18 -9 5 -6 87 4 123 20 173 79 247 19 23 51 70 71 105 21
34 41 62 46 62 5 0 12 -16 16 -36z m-2206 -397 c51 0 92 -5 103 -12 16 -11 15
-14 -17 -39 -50 -38 -87 -89 -107 -149 -14 -43 -19 -48 -25 -32 -4 11 -27 71
-51 133 -24 62 -43 115 -43 117 0 3 12 -1 28 -7 15 -6 65 -11 112 -11z m3913
9 c18 -8 54 -34 82 -59 l50 -44 -28 -37 -28 -37 -30 25 c-29 24 -145 67 -222
81 -20 4 -37 11 -37 15 0 5 21 16 48 24 26 9 65 23 87 31 22 8 41 14 43 15 1
0 17 -6 35 -14z m-2230 -118 c-29 -51 -86 -85 -323 -196 -36 -17 -93 -49 -127
-71 l-62 -40 15 42 c17 49 57 119 77 135 7 6 68 27 135 47 67 19 161 53 209
74 49 21 90 39 91 40 2 1 -5 -14 -15 -31z m4383 19 c10 -10 -25 -63 -65 -100
-51 -46 -140 -91 -209 -106 -29 -6 -55 -11 -58 -11 -3 0 17 18 45 40 54 43
102 101 129 159 l17 33 68 -5 c37 -2 70 -7 73 -10z m6782 -387 c4 0 26 57 47
128 22 70 41 120 43 111 3 -19 -65 -370 -74 -378 -3 -4 -3 15 1 40 l7 47 -52
7 c-42 6 -50 10 -45 24 4 9 16 75 27 146 11 72 23 146 27 165 3 19 7 -38 9
-127 1 -90 6 -163 10 -163z m-1864 64 c37 -144 42 -364 11 -514 -8 -36 -17
-83 -20 -105 l-7 -40 -21 40 c-18 36 -51 115 -109 260 -23 59 -23 63 33 300
55 233 48 217 75 164 12 -25 29 -72 38 -105z m-7448 -5 c25 -7 48 -17 50 -23
3 -7 -10 -63 -28 -126 -38 -132 -53 -148 -123 -129 -21 6 -75 9 -120 7 -69 -2
-88 -7 -123 -30 -40 -27 -42 -27 -52 -8 -33 61 97 252 203 300 48 22 126 26
193 9z m-200 -670 c15 -17 19 -42 24 -146 3 -78 1 -131 -5 -138 -5 -6 -32 -26
-60 -43 -68 -42 -109 -86 -149 -162 l-35 -65 -28 60 c-22 48 -28 74 -28 131 0
63 4 79 42 155 61 120 112 191 153 211 45 23 63 23 86 -3z m7364 -165 c0 -140
-49 -322 -135 -494 -41 -82 -56 -122 -70 -184 -6 -27 -7 -28 -26 -10 -27 24
-52 114 -44 161 22 134 53 221 150 414 35 70 72 153 81 185 l17 59 13 -30 c7
-16 13 -62 14 -101z m-1991 -325 c47 -143 38 -196 -51 -326 -70 -101 -143
-159 -236 -188 -21 -6 -19 -1 19 62 72 116 83 185 50 292 -18 57 -18 63 -2 81
27 34 186 158 192 151 4 -3 16 -36 28 -72z m1521 -423 c0 -8 -7 -49 -15 -92
-19 -99 -60 -186 -118 -252 -67 -75 -123 -151 -156 -213 -19 -33 -32 -48 -35
-39 -11 35 -16 158 -7 181 5 13 34 53 64 87 31 35 100 127 154 203 54 76 101
139 105 139 5 0 8 -6 8 -14z m-9064 -277 c38 -12 85 -30 104 -42 57 -34 137
-107 183 -166 63 -81 64 -83 30 -75 -65 15 -133 55 -203 120 -41 38 -104 91
-140 118 -36 27 -69 53 -74 58 -17 15 30 9 100 -13z m4039 -258 c8 -37 -9
-103 -41 -158 -26 -45 -86 -86 -220 -150 -72 -35 -86 -38 -161 -38 -45 1 -85
4 -90 8 -4 4 23 35 59 67 76 69 100 104 139 204 l27 71 114 11 c175 17 165 18
173 -15z m4370 -266 c-38 -66 -176 -201 -270 -264 -44 -30 -102 -73 -129 -95
-48 -39 -49 -40 -33 -11 14 28 448 426 456 419 2 -2 -9 -24 -24 -49z m-7687
-117 c64 -20 163 -88 267 -182 59 -53 47 -58 -58 -26 -80 25 -152 73 -251 168
-84 80 -84 80 42 40z m6916 -470 c-32 -63 -54 -86 -139 -142 -85 -56 -185
-107 -275 -140 -25 -9 -69 -34 -97 -56 -29 -22 -53 -37 -53 -34 0 23 48 89 82
111 62 42 482 291 491 292 4 1 0 -14 -9 -31z m-6137 -152 c152 -27 178 -38
362 -145 l115 -66 -70 -3 c-137 -6 -270 33 -399 116 -38 25 -94 61 -124 79
l-55 33 45 0 c24 0 81 -7 126 -14z m5143 -326 c0 -5 -25 -34 -56 -64 -69 -68
-215 -142 -429 -217 -82 -28 -162 -58 -177 -66 l-28 -13 26 57 c53 122 27 106
349 214 160 54 296 98 303 98 6 1 12 -3 12 -9z m-4015 -198 c55 -19 204 -61
330 -92 l230 -57 -77 -8 c-96 -9 -246 8 -364 41 -75 21 -393 102 -474 121
l-25 6 30 9 c38 11 215 27 235 20 8 -2 60 -20 115 -40z m2965 -120 c0 -14 -57
-70 -87 -85 -57 -30 -485 -140 -573 -147 -47 -5 -104 -15 -127 -23 -24 -8 -43
-11 -43 -7 0 12 69 100 94 122 59 51 108 64 326 88 58 7 164 22 235 35 146 26
175 28 175 17z m-1532 -119 c216 -5 240 -8 212 -20 -139 -58 -208 -66 -513
-57 l-259 7 25 25 c43 42 120 63 212 57 44 -2 189 -8 323 -12z"/>
<path d="M14150 11242 c0 -12 9 -75 21 -140 24 -134 18 -178 -28 -228 l-26
-28 20 -36 c30 -51 48 -49 103 8 88 91 91 179 13 297 -87 130 -103 150 -103
127z"/>
<path d="M15156 19400 c-15 -5 -36 -16 -45 -24 -9 -8 -32 -16 -51 -18 l-35 -4
28 -14 c22 -11 27 -19 25 -42 -3 -28 1 -31 149 -97 83 -38 153 -67 156 -65 2
2 96 -41 208 -97 112 -55 197 -98 189 -96 -8 3 -96 37 -195 75 -242 93 -400
146 -580 193 -393 102 -812 133 -1136 84 -52 -8 -98 -15 -102 -15 -5 0 -6 -4
-2 -10 3 -5 -28 -10 -77 -12 l-83 -3 93 -24 c63 -16 104 -33 130 -53 44 -35
102 -66 157 -84 37 -12 33 -13 -45 -6 -136 11 -478 8 -558 -6 -41 -7 -91 -21
-112 -32 -22 -11 -49 -20 -61 -20 -20 0 -21 -1 -7 -17 9 -10 19 -32 22 -49 7
-30 13 -34 151 -85 79 -29 142 -55 141 -57 -2 -1 -50 12 -107 29 -134 42 -262
46 -349 11 -30 -12 -64 -22 -74 -22 -11 0 -16 -3 -13 -7 4 -3 -1 -11 -10 -18
-14 -10 12 -34 183 -170 109 -87 203 -161 208 -165 4 -5 -31 7 -79 26 -48 20
-93 33 -99 31 -6 -3 -19 -20 -29 -39 l-19 -35 68 -109 c94 -151 180 -334 205
-434 18 -70 21 -102 16 -190 -7 -121 -65 -381 -147 -654 -28 -94 -49 -175 -47
-180 6 -16 143 120 185 183 152 230 176 745 53 1108 l-28 82 45 -32 c73 -52
430 -411 554 -557 292 -346 401 -471 405 -467 8 9 -170 353 -223 430 -29 42
-52 77 -51 77 1 0 35 -9 75 -19 39 -11 72 -16 72 -13 0 5 -227 308 -251 336
-4 5 -26 -5 -47 -23 -22 -17 -44 -31 -50 -31 -5 0 -44 38 -85 84 l-76 83 29
28 c17 16 30 33 30 38 0 26 -257 264 -443 411 -48 38 -85 71 -83 73 7 8 249
-54 383 -98 296 -96 675 -266 938 -421 61 -36 193 -114 295 -175 102 -60 211
-124 242 -142 l57 -32 30 42 c17 23 28 45 26 50 -3 4 -57 43 -120 85 l-114 77
19 28 c11 15 20 31 20 36 0 12 -310 215 -485 319 -180 105 -591 314 -805 408
-85 38 -157 71 -160 73 -9 9 240 -8 415 -27 563 -63 1121 -234 1635 -502 74
-38 136 -66 138 -60 1 5 9 17 16 27 12 17 18 16 99 -28 48 -26 89 -47 92 -47
6 0 57 81 53 85 -24 22 -266 171 -371 230 -329 183 -797 371 -1274 510 -73 22
-131 40 -130 41 6 6 278 -29 402 -51 761 -138 1517 -464 2200 -950 135 -96
272 -200 514 -392 79 -62 147 -113 152 -113 8 0 7 14 -8 75 -2 11 18 -5 49
-40 29 -33 67 -75 84 -94 l31 -35 41 35 c23 19 42 36 42 39 -1 3 -49 56 -108
119 l-107 113 -28 -22 -28 -23 -37 34 c-20 19 -39 35 -41 36 -2 1 9 16 23 34
15 17 26 35 24 39 -8 21 -539 459 -551 454 -8 -3 -57 31 -111 76 -169 139
-334 239 -695 419 -342 171 -574 269 -693 293 -67 13 -133 43 -73 33 17 -2 73
-10 125 -16 294 -34 692 -140 1032 -275 275 -109 715 -328 711 -355 -1 -8 38
-41 90 -76 292 -196 658 -554 982 -958 174 -218 310 -412 455 -650 40 -66 74
-122 76 -124 3 -3 25 5 50 18 26 12 48 21 49 19 1 -2 10 -19 20 -38 9 -19 25
-42 34 -50 16 -13 67 -139 59 -144 -1 -1 -24 -11 -50 -24 -27 -12 -48 -26 -48
-32 0 -6 25 -60 55 -120 l55 -110 36 15 c65 27 77 -13 14 -45 -22 -11 -40 -22
-40 -24 0 -2 25 -56 56 -120 59 -123 55 -119 109 -100 6 2 70 -170 143 -384
74 -213 140 -400 147 -417 12 -27 13 -11 14 132 1 149 -1 171 -29 280 -63 244
-259 786 -325 898 -12 22 -51 75 -84 118 -60 75 -67 97 -34 97 22 0 12 33 -49
165 -186 405 -339 654 -607 990 -66 82 -118 151 -116 154 8 8 136 -112 327
-307 106 -108 228 -231 270 -272 43 -42 78 -80 78 -84 0 -6 157 -225 197 -275
6 -8 88 57 88 69 0 17 -187 269 -200 270 -5 0 -24 22 -41 48 -39 59 -393 453
-528 588 -56 55 -129 119 -164 143 -81 55 -186 104 -227 106 -18 1 -37 5 -43
9 -6 4 -10 -12 -10 -45 -1 -100 98 -293 242 -469 177 -217 355 -461 398 -545
18 -35 -7 -3 -77 100 -151 221 -330 429 -615 716 -229 230 -353 335 -548 467
-105 71 -145 93 -153 85 -9 -9 -29 6 -78 55 -137 140 -430 302 -801 445 -353
135 -661 202 -1046 227 -183 11 -218 11 -258 0z"/>
</g>
</svg>
